<?xml version="1.0" encoding="UTF-8"?>
<svg id="Layer_1" data-name="Layer 1" xmlns="http://www.w3.org/2000/svg" xmlns:xlink="http://www.w3.org/1999/xlink" viewBox="0 0 240.09 177.24">
  <defs>
    <style>
      .cls-1 {
        fill: url(#linear-gradient-2);
      }

      .cls-2 {
        fill: #b0c136;
      }

      .cls-3 {
        fill: url(#linear-gradient);
      }
    </style>
    <linearGradient id="linear-gradient" x1="36.45" y1="29.65" x2="87.05" y2="122.68" gradientUnits="userSpaceOnUse">
      <stop offset=".43" stop-color="#8e9e3a"/>
      <stop offset=".71" stop-color="#798930"/>
      <stop offset="1" stop-color="#687828"/>
    </linearGradient>
    <linearGradient id="linear-gradient-2" x1="204.33" y1="24.98" x2="111.27" y2="137.16" gradientUnits="userSpaceOnUse">
      <stop offset=".43" stop-color="#b9d532"/>
      <stop offset=".44" stop-color="#b7d332"/>
      <stop offset=".81" stop-color="#99ac37"/>
      <stop offset="1" stop-color="#8e9e3a"/>
    </linearGradient>
  </defs>
  <path class="cls-3" d="M111.14,84.05c1.68-2.26,3.02-4.17,3.93-5.5-.41-.48-.82-.96-1.24-1.45h0c-3.28-4.42-6.81-9.84-10.1-16.28-4.15-8.13-6.79-15.69-8.51-21.97-8.33,.55-16.67,1.1-25,1.66,0,.01,0,.03,0,.04,.09,.76,.13,1.52,.13,2.3,0,4.46-1.45,8.58-3.89,11.94-3.69,5.07-9.67,8.37-16.41,8.37-5.67,0-10.8-2.34-14.49-6.1-3.43-3.5-5.6-8.22-5.8-13.45-9.93,.68-19.86,1.36-29.79,2.04,.85,4.89,1.89,9.48,3.06,13.8,6.71,24.64,17.96,40.21,24.94,48.41,9.19,10.79,16.33,17.87,26.83,18.74,12.5,1.04,22.78-7.79,33.88-17.32,10.38-8.91,19.39-21.13,22.43-25.23Z"/>
  <path class="cls-2" d="M100.75,136.63c-11.19,0-20.3,9.11-20.3,20.3s9.11,20.31,20.3,20.31,20.3-9.11,20.3-20.31-9.11-20.3-20.3-20.3Z"/>
  <path class="cls-1" d="M199.15,52.56c-11.19,0-20.3-9.11-20.3-20.31,0-5.54,2.24-10.57,5.85-14.24-8.68-6-17.36-12.01-26.03-18.01-4.86,9.49-9.48,18.16-13.73,25.91-5.49,10-10.09,17.98-11.52,20.42-5.11,8.75-10.8,18.5-18.24,28.92,1.04,1.24,2.09,2.47,3.16,3.66l-1.64,1.48c-.97-1.07-1.92-2.17-2.86-3.29-3.96,5.44-8.39,11.05-13.48,16.79-12.99,14.65-22.58,21.55-26.98,24.53-5.55,3.76-10.47,6.45-14.02,8.23,28.91-.3,68.47-.69,94.68-.95,.85,0,1.1-.01,1.47-.02,9.02-.21,17.65-2.49,25.9-6.47-.95-.24-1.9-.47-2.84-.72l.58-2.13c1.75,.48,3.53,.9,5.3,1.31,20.98-11.32,39.48-33.7,55.63-61.32-7.5-5.19-15.01-10.38-22.51-15.58-3.22,6.96-10.27,11.8-18.43,11.8Zm-70.75,39.25c-2.06-1.77-4.08-3.63-6.03-5.53l1.55-1.58c1.91,1.87,3.9,3.69,5.93,5.43l-1.44,1.68Zm13.04,9.86c-2.27-1.5-4.51-3.09-6.68-4.73l1.33-1.76c2.13,1.61,4.34,3.17,6.56,4.65l-1.22,1.84Zm14.19,8.14c-2.44-1.2-4.87-2.49-7.23-3.85l1.1-1.92c2.32,1.33,4.71,2.6,7.1,3.78l-.98,1.98Zm15.12,6.28c-2.57-.88-5.15-1.85-7.66-2.9l.85-2.04c2.47,1.02,5,1.98,7.53,2.85l-.72,2.09Z"/>
</svg>