<?xml version="1.0" encoding="utf-8"?>
<!-- Generator: Adobe Illustrator 26.5.0, SVG Export Plug-In . SVG Version: 6.00 Build 0)  -->
<svg version="1.1" id="Layer_1" xmlns="http://www.w3.org/2000/svg" xmlns:xlink="http://www.w3.org/1999/xlink" x="0px" y="0px"
	 viewBox="0 0 240 65.8" style="enable-background:new 0 0 240 65.8;" xml:space="preserve">
<style type="text/css">
	.st0{fill:#601FEB;}
	.st1{fill:url(#SVGID_1_);}
	.st2{fill:#B0C136;}
	.st3{fill:url(#SVGID_00000165195741770020608360000005110434983375338153_);}
</style>
<g>
	<path class="st0" d="M129.4,52.8c2.4-0.2,4.8-0.4,7.2-0.6c0-2,0.1-4,0.1-6c-2.4,0.2-4.8,0.4-7.2,0.6
		C129.4,48.8,129.4,50.8,129.4,52.8z"/>
	<path class="st0" d="M80.9,42.6c-0.2,1.7-0.5,3.4-0.7,5c1.6,0.5,4.4,1.1,7.8,0.7c2.4-0.3,4.3-1,5.6-1.6c0-1.4,0.1-2.8,0.1-4.3
		c-1.5,0.5-3.8,1-6.6,1C84.4,43.5,82.3,43,80.9,42.6L80.9,42.6z"/>
	<path class="st0" d="M109.2,44.2c-0.2,1.7-0.5,3.4-0.7,5c1.6,0.5,4.4,1.1,7.8,0.7c2.4-0.3,4.3-1,5.6-1.6c0-1.4,0.1-2.8,0.1-4.3
		c-1.5,0.5-3.8,1-6.6,1C112.8,45.1,110.7,44.6,109.2,44.2L109.2,44.2z"/>
	<path class="st0" d="M82.2,17.4c2.8-0.2,5.1-0.8,6.8-1.3c0-1.7,0.1-3.4,0.1-5.1c-1.7,0.4-3.6,0.8-5.8,1c-2.6,0.3-4.9,0.3-6.9,0.1
		c-0.3,1.6-0.6,3.2-0.9,4.8C77.3,17.4,79.6,17.6,82.2,17.4z"/>
	<path class="st0" d="M36,43.6c-2.9-0.5-5.3-1.2-7.3-1.9c0,1.8,0,3.7,0,5.5c2.1,0.5,4.5,1,7.1,1.3c2.7,0.4,5.3,0.6,7.6,0.6
		c0.1-1.7,0.2-3.4,0.4-5C41.5,44.2,38.9,44.1,36,43.6z"/>
	<path class="st0" d="M143,22.9c-2.2,0.9-4.4,1.8-6.6,2.7c1.9,5.4,0.7,10.2-2,11.7c-1.1,0.6-3.1,1-5,0.1c-1.5-0.7-2.3-2-2.6-2.6
		c-0.8-1.6-0.6-3.2-0.5-4.6c0.2-2.1,0.4-5.2,0.4-8.9c-1.9,0.8-3.8,1.6-5.8,2.5c0.4,3.2,0.1,5.8-0.2,7.5c-0.4,2.5-0.9,3.2-1.6,3.7
		c-1.1,0.8-2.8,1.1-4,0.4c-1.2-0.7-1.6-2.3-1.8-5.4c-0.3-5.6,0.3-9.4,0.5-13.6c0.1-1.8,0.1-4.6-0.1-8c-2.1,0.9-4.2,1.8-6.2,2.7
		c1.3,10.3,0.7,18.3-1.3,20.8c-1.6,2.1-3.3,2.3-3.3,2.3c-0.2,0-1.7,0.3-2.7-0.6c-0.9-0.8-0.7-2.3-0.5-4.6c0.2-2.1,0.4-5.2,0.4-8.9
		c-1.9,0.8-3.8,1.6-5.8,2.5c0.4,3.2,0.1,5.8-0.2,7.5c-0.4,2.4-0.9,3.2-1.6,3.7c-0.6,0.5-1.4,0.7-2.1,0.8v0c-1,0.2-2,0-2.7-0.6
		c-0.9-0.8-0.7-2.3-0.5-4.6c0.2-2.1,0.4-5.2,0.4-8.9c-1.9,0.8-3.8,1.6-5.8,2.5c0.4,3.2,0.1,5.8-0.2,7.5c-0.4,2.4-0.9,3.2-1.6,3.7
		C79.3,35,78,35,76.9,34.9v0c0,0-0.1,0-0.1,0c-1.3-0.1-3.5-0.4-4.6-1.9c-1-1.3-0.7-3.3,0-7.4c0.3-1.6,0.5-2.9,0.7-3.8
		c-0.9,0-2.1,0-3.5,0.5c-3.9,1.3-4.9,4.5-8.1,7.3c-2.6,2.3-5.2,3-8.6,4c0,0-9.2,2.6-18.3-0.5c-2.2-0.8-3.7-1.6-4.2-1.9
		c-2-1.2-3.3-2.7-4.1-3.7c0-0.4,0-1.1,0-1.9c-0.1-3.7-0.1-5.9-1.1-7.9c-0.9-1.8-2.4-2.9-2.8-3.2c-3.9-2.7-10-1.9-13.3,1.4
		c-1.1,1.1-1.6,2.2-2.2,3.4c-1.8,3.9-1.7,7.5-1.6,9.5c2-0.5,4-1.1,5.9-1.6c0-0.8,0.1-1.8,0.2-3.1c0.4-3.4,0.6-5.1,1.9-6.4
		c1.1-1.1,3-1.8,4.7-1.3c3.7,1.1,3.9,8,3.9,8.9c0,1.4-0.2,2.5-0.4,3.3c-0.3,0.3-0.9,0.8-1.6,1.2c-2.5,1.5-4.6,1.3-7.4,1.6
		c-2.8,0.3-5.8,0.6-7.9,2.3c-2.3,1.8-2.8,4.5-3.6,8.7c-0.5,2.3-0.9,5.9-0.5,10.3c1.9-0.7,3.8-1.4,5.7-2.1c0-1.6,0.1-3.5,0.2-5.6
		c0.2-4.5,0.6-6.7,1.6-7.7c2.7-2.6,7.7,1.1,12.2-1.8c1.5-1,2.4-2.3,2.9-3.2l3,3.4c2.9,3.2,8.8,3.8,11.4,4.2c9.5,1.1,17.1-1.6,20-2.8
		c4.5-1.9,7.8-4.2,10-5.9c0,0.9,0.1,3.4,1.8,5.7c0.4,0.5,2.9,3.7,7.2,3.6c4.5-0.1,6.9-3.8,7.1-4.1c1.5,2.6,4.4,4,7.2,3.6
		c3.4-0.5,5-3.6,5.2-3.9c1.5,2.5,4.3,4,7.2,3.6c3.7-0.5,5.4-3.8,5.5-4.1c1.4,3.9,5.1,6.2,8.5,5.7c3.4-0.5,5.1-3.7,5.3-4.1
		c0.3,0.4,0.8,0.8,1.3,1.3c3.6,3,10.1,4.8,15.2,1.8C143.7,37.2,146.1,29.6,143,22.9L143,22.9z"/>
</g>
<g>
	
		<linearGradient id="SVGID_1_" gradientUnits="userSpaceOnUse" x1="164.3851" y1="56.9874" x2="183.1751" y2="22.4474" gradientTransform="matrix(1 0 0 -1 0 68)">
		<stop  offset="0.43" style="stop-color:#8E9E3A"/>
		<stop  offset="0.71" style="stop-color:#798930"/>
		<stop  offset="1" style="stop-color:#687828"/>
	</linearGradient>
	<path class="st1" d="M192.1,31.2c0.6-0.8,1.1-1.5,1.5-2c-0.1-0.2-0.3-0.4-0.5-0.5l0,0c-1.2-1.6-2.5-3.6-3.8-6
		c-1.5-3-2.5-5.8-3.2-8.2c-3.1,0.2-6.2,0.4-9.3,0.6c0,0,0,0,0,0c0,0.3,0.1,0.6,0.1,0.9c0,1.7-0.5,3.2-1.4,4.4
		c-1.4,1.9-3.6,3.1-6.1,3.1c-2.1,0-4-0.9-5.4-2.3c-1.3-1.3-2.1-3-2.1-5c-3.7,0.2-7.4,0.5-11.1,0.8c0.3,1.8,0.7,3.5,1.1,5.1
		c2.5,9.1,6.7,14.9,9.3,18c3.4,4,6.1,6.6,10,7c4.6,0.4,8.5-2.9,12.6-6.4C187.7,37.3,191,32.8,192.1,31.2L192.1,31.2z"/>
	<path class="st2" d="M188.3,50.7c-4.2,0-7.5,3.4-7.5,7.5s3.4,7.5,7.5,7.5s7.5-3.4,7.5-7.5S192.4,50.7,188.3,50.7z"/>
	
		<linearGradient id="SVGID_00000085213725420688771170000016476944149616906400_" gradientUnits="userSpaceOnUse" x1="226.7257" y1="58.7153" x2="192.1757" y2="17.0653" gradientTransform="matrix(1 0 0 -1 0 68)">
		<stop  offset="0.43" style="stop-color:#B9D532"/>
		<stop  offset="0.44" style="stop-color:#B7D332"/>
		<stop  offset="0.81" style="stop-color:#99AC37"/>
		<stop  offset="1" style="stop-color:#8E9E3A"/>
	</linearGradient>
	<path style="fill:url(#SVGID_00000085213725420688771170000016476944149616906400_);" d="M224.8,19.5c-4.2,0-7.5-3.4-7.5-7.5
		c0-2.1,0.8-3.9,2.2-5.3c-3.2-2.2-6.4-4.5-9.7-6.7c-1.8,3.5-3.5,6.7-5.1,9.6c-2,3.7-3.8,6.7-4.3,7.6c-1.9,3.2-4,6.9-6.8,10.7
		c0.4,0.5,0.8,0.9,1.2,1.4l-0.6,0.5c-0.4-0.4-0.7-0.8-1.1-1.2c-1.5,2-3.1,4.1-5,6.2c-4.8,5.4-8.4,8-10,9.1c-2.1,1.4-3.9,2.4-5.2,3.1
		c10.7-0.1,25.4-0.3,35.2-0.3c0.3,0,0.4,0,0.6,0c3.4-0.1,6.6-0.9,9.6-2.4c-0.4-0.1-0.7-0.2-1.1-0.3l0.2-0.8c0.6,0.2,1.3,0.3,2,0.5
		c7.8-4.2,14.7-12.5,20.7-22.8c-2.8-1.9-5.6-3.9-8.4-5.8C230.5,17.7,227.9,19.5,224.8,19.5L224.8,19.5z M198.5,34.1
		c-0.8-0.7-1.5-1.3-2.2-2l0.6-0.6c0.7,0.7,1.4,1.4,2.2,2L198.5,34.1L198.5,34.1z M203.4,37.8c-0.8-0.6-1.7-1.2-2.5-1.8l0.5-0.7
		c0.8,0.6,1.6,1.2,2.4,1.7L203.4,37.8L203.4,37.8z M208.6,40.8c-0.9-0.5-1.8-0.9-2.7-1.4l0.4-0.7c0.9,0.5,1.8,1,2.6,1.4L208.6,40.8
		L208.6,40.8z M214.2,43.1c-0.9-0.3-1.9-0.7-2.8-1.1l0.3-0.8c0.9,0.4,1.9,0.7,2.8,1.1L214.2,43.1z"/>
</g>
</svg>
