<?xml version="1.0" encoding="UTF-8"?>
<svg id="Layer_1" data-name="Layer 1" xmlns="http://www.w3.org/2000/svg" xmlns:xlink="http://www.w3.org/1999/xlink" viewBox="0 0 222.08 228">
  <defs>
    <style>
      .cls-1 {
        fill: url(#linear-gradient-2);
      }

      .cls-2 {
        fill: #b0c136;
      }

      .cls-3 {
        fill: #b9d532;
      }

      .cls-4 {
        fill: url(#linear-gradient);
      }
    </style>
    <linearGradient id="linear-gradient" x1="37.33" y1="25.88" x2="81.5" y2="107.08" gradientUnits="userSpaceOnUse">
      <stop offset=".43" stop-color="#8e9e3a"/>
      <stop offset=".71" stop-color="#798930"/>
      <stop offset="1" stop-color="#687828"/>
    </linearGradient>
    <linearGradient id="linear-gradient-2" x1="183.87" y1="21.81" x2="102.64" y2="119.73" gradientUnits="userSpaceOnUse">
      <stop offset=".43" stop-color="#b9d532"/>
      <stop offset=".44" stop-color="#b7d332"/>
      <stop offset=".81" stop-color="#99ac37"/>
      <stop offset="1" stop-color="#8e9e3a"/>
    </linearGradient>
  </defs>
  <g>
    <path class="cls-3" d="M198.99,227.93c3.7-.32,7.39-.65,11.09-.97,.05-3.05,.09-6.1,.14-9.15-3.7,.32-7.39,.65-11.09,.97-.05,3.05-.09,6.1-.14,9.15Z"/>
    <path class="cls-3" d="M124.36,212.2c-.37,2.59-.74,5.17-1.11,7.76,2.46,.77,6.7,1.74,11.92,1.11,3.71-.45,6.66-1.55,8.67-2.5,.04-2.19,.08-4.38,.12-6.57-2.37,.76-5.88,1.59-10.17,1.59-3.92,0-7.15-.71-9.42-1.39Z"/>
    <path class="cls-3" d="M167.98,214.71c-.37,2.59-.74,5.17-1.11,7.76,2.46,.77,6.7,1.74,11.92,1.11,3.71-.45,6.66-1.55,8.67-2.5,.04-2.19,.08-4.38,.12-6.57-2.37,.76-5.88,1.59-10.17,1.59-3.92,0-7.15-.71-9.42-1.39Z"/>
    <path class="cls-3" d="M126.44,173.53c4.29-.28,7.86-1.16,10.5-2.02,.05-2.59,.09-5.17,.14-7.76-2.58,.66-5.59,1.25-8.97,1.6-3.98,.41-7.56,.4-10.56,.2-.45,2.47-.9,4.95-1.35,7.42,2.66,.47,6.16,.82,10.25,.55Z"/>
    <path class="cls-3" d="M55.29,213.79c-4.39-.72-8.17-1.81-11.22-2.91,0,2.82,0,5.64,0,8.45,3.29,.8,6.95,1.53,10.94,2.08,4.2,.58,8.11,.87,11.64,.97,.18-2.59,.37-5.17,.55-7.76-3.33,.08-7.38-.08-11.92-.83Z"/>
    <path class="cls-3" d="M219.96,181.93c-3.39,1.38-6.79,2.76-10.18,4.14,2.9,8.24,1.07,15.7-3.12,17.97-1.69,.91-4.81,1.55-7.69,.22-2.33-1.07-3.54-3-4.05-3.98-1.31-2.51-.95-4.96-.75-7.14,.3-3.31,.6-7.93,.56-13.64-2.96,1.26-5.91,2.53-8.87,3.79,.6,4.92,.21,8.85-.24,11.48-.65,3.76-1.37,4.97-2.4,5.72-1.71,1.25-4.31,1.67-6.09,.63-1.91-1.12-2.42-3.61-2.69-8.23-.51-8.66,.53-14.51,.79-20.92,.11-2.82,.19-7.05-.09-12.29-3.21,1.38-6.41,2.75-9.62,4.13,1.93,15.9,1.1,28.08-1.94,32.06-2.41,3.16-5.16,3.59-5.16,3.59-.37,.06-2.63,.4-4.07-.88-1.43-1.27-1.07-3.6-.75-7.14,.3-3.31,.6-7.93,.56-13.64-2.96,1.26-5.91,2.53-8.87,3.79,.6,4.92,.21,8.85-.24,11.48-.65,3.75-1.45,4.95-2.4,5.72-.97,.78-2.09,1.1-3.19,1.21v-.04c-1.54,.23-3.09-.01-4.07-.88-1.43-1.27-1.07-3.6-.75-7.14,.3-3.31,.6-7.93,.56-13.64-2.96,1.26-5.91,2.53-8.87,3.79,.6,4.92,.21,8.85-.24,11.48-.65,3.75-1.45,4.95-2.4,5.72-1.66,1.33-3.77,1.34-5.48,1.2v-.03c-.05,0-.11-.01-.16-.02-2.06-.22-5.32-.57-7.07-2.91-1.48-1.99-1.02-5.14,0-11.36,.4-2.41,.82-4.39,1.15-5.77-1.33-.05-3.28,.04-5.44,.78-5.94,2.02-7.59,6.95-12.4,11.18-4,3.52-8.07,4.68-13.25,6.15,0,0-14.12,4.02-28.11-.84-3.43-1.19-5.63-2.42-6.5-2.97-3.05-1.92-5.12-4.1-6.38-5.62,.02-.64,.03-1.67,.01-2.92-.09-5.73-.15-9.05-1.76-12.18-1.45-2.8-3.62-4.39-4.33-4.88-6.05-4.15-15.42-2.84-20.51,2.23-1.68,1.67-2.45,3.36-3.33,5.27-2.71,5.92-2.68,11.45-2.4,14.6,3.05-.83,6.1-1.66,9.15-2.49,.01-1.16,.07-2.78,.28-4.71,.56-5.24,.86-7.85,2.86-9.8,1.67-1.63,4.63-2.79,7.16-2.01,5.67,1.74,5.94,12.24,5.96,13.72,.02,2.08-.26,3.83-.54,5.11-.53,.49-1.36,1.18-2.46,1.84-3.79,2.28-7.04,1.95-11.3,2.41-4.32,.47-8.85,.89-12.19,3.6-3.49,2.83-4.3,6.98-5.57,13.41-.71,3.62-1.4,9.05-.81,15.78,2.92-1.07,5.84-2.15,8.77-3.22,.06-2.53,.15-5.42,.29-8.61,.29-6.91,.89-10.33,2.39-11.79,4.14-3.99,11.79,1.65,18.71-2.81,2.32-1.49,3.65-3.54,4.38-4.9l4.57,5.16c4.41,4.84,13.52,5.93,17.48,6.4,14.61,1.75,26.28-2.51,30.72-4.36,6.89-2.87,12.02-6.43,15.34-9.08-.01,1.36,.14,5.21,2.85,8.77,.57,.75,4.46,5.71,11.08,5.54,6.92-.18,10.63-5.82,10.92-6.28,2.31,4,6.71,6.19,11,5.53,5.31-.81,7.74-5.57,7.96-6.02,2.31,3.93,6.67,6.11,11,5.53,5.71-.76,8.27-5.9,8.45-6.28,2.15,6.05,7.82,9.57,13.02,8.73,5.17-.84,7.77-5.63,8.1-6.26,.49,.57,1.18,1.29,2.08,2.05,5.46,4.56,15.56,7.38,23.45,2.76,8.28-4.84,11.97-16.59,7.18-26.96Z"/>
  </g>
  <g>
    <path class="cls-4" d="M102.53,73.37c1.46-1.97,2.63-3.64,3.43-4.8-.36-.42-.72-.84-1.08-1.26h0c-2.86-3.86-5.94-8.59-8.81-14.21-3.62-7.1-5.93-13.7-7.43-19.18-7.27,.48-14.55,.96-21.82,1.45,0,.01,0,.03,0,.04,.08,.66,.12,1.33,.12,2.01,0,3.89-1.26,7.49-3.4,10.42-3.23,4.42-8.44,7.31-14.32,7.31-4.95,0-9.43-2.04-12.65-5.32-2.99-3.05-4.89-7.18-5.06-11.74-8.67,.59-17.33,1.19-26,1.78,.74,4.27,1.65,8.28,2.68,12.05,5.86,21.51,15.68,35.1,21.77,42.25,8.02,9.42,14.26,15.59,23.42,16.36,10.91,.91,19.88-6.8,29.57-15.12,9.06-7.78,16.92-18.45,19.58-22.02Z"/>
    <path class="cls-2" d="M93.45,119.27c-9.77,0-17.72,7.95-17.72,17.72s7.95,17.73,17.72,17.73,17.72-7.95,17.72-17.73-7.95-17.72-17.72-17.72Z"/>
    <path class="cls-1" d="M179.35,45.88c-9.77,0-17.72-7.95-17.72-17.73,0-4.84,1.95-9.23,5.11-12.43-7.57-5.24-15.15-10.48-22.72-15.72-4.24,8.28-8.27,15.85-11.99,22.61-4.79,8.73-8.81,15.69-10.06,17.83-4.46,7.64-9.43,16.15-15.92,25.25,.9,1.08,1.82,2.15,2.76,3.19l-1.43,1.29c-.85-.94-1.68-1.9-2.5-2.87-3.46,4.75-7.33,9.64-11.77,14.65-11.34,12.79-19.71,18.81-23.55,21.41-4.84,3.28-9.14,5.63-12.24,7.19,25.23-.26,59.77-.61,82.65-.83,.74,0,.96,0,1.28-.02,7.87-.18,15.4-2.17,22.61-5.65-.83-.21-1.66-.41-2.48-.63l.51-1.86c1.53,.42,3.08,.79,4.63,1.14,18.32-9.88,34.46-29.42,48.56-53.53-6.55-4.53-13.1-9.06-19.65-13.6-2.81,6.07-8.96,10.3-16.08,10.3Zm-61.76,34.26c-1.79-1.54-3.56-3.17-5.26-4.82l1.35-1.38c1.67,1.63,3.41,3.22,5.17,4.74l-1.26,1.46Zm11.39,8.61c-1.98-1.31-3.94-2.7-5.83-4.13l1.16-1.54c1.86,1.4,3.78,2.77,5.73,4.06l-1.07,1.61Zm12.39,7.11c-2.13-1.05-4.25-2.18-6.31-3.36l.96-1.68c2.02,1.16,4.11,2.27,6.2,3.3l-.85,1.73Zm13.2,5.48c-2.24-.77-4.49-1.62-6.69-2.53l.74-1.78c2.15,.89,4.37,1.73,6.57,2.49l-.63,1.83Z"/>
  </g>
</svg>