<?xml version="1.0" encoding="utf-8"?>
<!-- Generator: Adobe Illustrator 26.5.0, SVG Export Plug-In . SVG Version: 6.00 Build 0)  -->
<svg version="1.1" id="جایگاه_های_بلیط"
	 xmlns="http://www.w3.org/2000/svg" xmlns:xlink="http://www.w3.org/1999/xlink" x="0px" y="0px" viewBox="0 0 736.4 289.5"
	 style="enable-background:new 0 0 736.4 289.5;" xml:space="preserve">
<style type="text/css">
	.st0{fill:#C6C9DF;}
</style>
<path d="M203.6,250.5c-0.1-0.7-0.2-1.6-0.3-2.4c-0.4,0.1-0.8,0.2-1.2,0.2c-0.6,0-1.1-0.2-1.5-0.5s-0.6-0.8-0.6-1.4
	c0-0.4,0.1-0.8,0.3-1.2c0.2-0.4,0.4-0.7,0.7-1s0.6-0.4,1-0.4c0.5,0,1,0.2,1.3,0.6c0.3,0.4,0.5,0.8,0.6,1.3c0.1,0.4,0.2,1,0.2,1.6
	c0.1,0.8,0.2,1.7,0.3,2.5c0.2,0.8,0.3,1.5,0.5,1.9l-1,0.6C203.9,251.8,203.7,251.2,203.6,250.5z M201.4,246.9
	c0.2,0.2,0.5,0.2,0.8,0.2c0.4,0,0.7-0.1,1-0.2c-0.1-0.6-0.2-1.1-0.4-1.5c-0.2-0.4-0.4-0.6-0.8-0.6c-0.2,0-0.3,0.1-0.5,0.2
	c-0.2,0.1-0.3,0.3-0.4,0.6c-0.1,0.2-0.1,0.5-0.1,0.7C201.1,246.5,201.2,246.7,201.4,246.9z"/>
<path d="M534.4,250.5c-0.1-0.7-0.2-1.6-0.3-2.4c-0.4,0.1-0.8,0.2-1.2,0.2c-0.6,0-1.1-0.2-1.5-0.5c-0.4-0.3-0.6-0.8-0.6-1.4
	c0-0.4,0.1-0.8,0.3-1.2c0.2-0.4,0.4-0.7,0.7-1s0.6-0.4,1-0.4c0.5,0,1,0.2,1.3,0.6c0.3,0.4,0.5,0.8,0.6,1.3c0.1,0.4,0.2,1,0.2,1.6
	c0.1,0.8,0.2,1.7,0.3,2.5c0.2,0.8,0.3,1.5,0.5,1.9l-1,0.6C534.6,251.8,534.5,251.2,534.4,250.5z M532.1,246.9
	c0.2,0.2,0.5,0.2,0.8,0.2c0.4,0,0.7-0.1,1-0.2c-0.1-0.6-0.2-1.1-0.4-1.5c-0.2-0.4-0.4-0.6-0.8-0.6c-0.2,0-0.3,0.1-0.5,0.2
	s-0.3,0.3-0.4,0.6c-0.1,0.2-0.1,0.5-0.1,0.7C531.8,246.5,531.9,246.7,532.1,246.9z"/>
<path d="M223.3,277.2c0-0.6,0-1.3-0.1-2c0-0.7-0.1-1.3-0.1-1.8c-0.1-0.7-0.2-1.3-0.3-1.8c-0.1-0.5-0.3-1-0.5-1.5l1-0.6
	c0.4,0.9,0.7,2.2,0.9,3.8c0.1,1,0.2,2.2,0.2,3.7v0.7h-1V277.2z M227.4,277c-0.3-0.2-0.5-0.4-0.7-0.7c-0.2-0.3-0.3-0.6-0.3-0.9
	c0-0.3,0.1-0.7,0.3-0.9c0.2-0.3,0.4-0.5,0.7-0.7c0.3-0.2,0.6-0.3,1-0.3s0.7,0.1,1,0.3c0.3,0.2,0.5,0.4,0.7,0.7
	c0.2,0.3,0.3,0.6,0.3,0.9c0,0.3-0.1,0.6-0.3,0.9c-0.2,0.3-0.4,0.5-0.7,0.7c-0.3,0.2-0.6,0.3-1,0.3S227.7,277.2,227.4,277z
	 M227.7,276.1c0.2,0.2,0.4,0.3,0.7,0.3s0.5-0.1,0.6-0.3c0.2-0.2,0.3-0.4,0.3-0.7s-0.1-0.5-0.3-0.7c-0.2-0.2-0.4-0.3-0.6-0.3
	s-0.5,0.1-0.7,0.3c-0.2,0.2-0.3,0.4-0.3,0.7S227.5,275.9,227.7,276.1z"/>
<path d="M506.8,277.2c0-0.6,0-1.3-0.1-2c0-0.7-0.1-1.3-0.1-1.8c-0.1-0.7-0.2-1.3-0.3-1.8s-0.3-1-0.5-1.5l1-0.6
	c0.4,0.9,0.7,2.2,0.9,3.8c0.1,1,0.2,2.2,0.2,3.7v0.7h-1V277.2z M510.8,277c-0.3-0.2-0.5-0.4-0.7-0.7c-0.2-0.3-0.3-0.6-0.3-0.9
	c0-0.3,0.1-0.7,0.3-0.9c0.2-0.3,0.4-0.5,0.7-0.7c0.3-0.2,0.6-0.3,1-0.3c0.3,0,0.7,0.1,1,0.3c0.3,0.2,0.5,0.4,0.7,0.7
	c0.2,0.3,0.3,0.6,0.3,0.9c0,0.3-0.1,0.6-0.3,0.9c-0.2,0.3-0.4,0.5-0.7,0.7c-0.3,0.2-0.6,0.3-1,0.3
	C511.4,277.3,511.1,277.2,510.8,277z M511.1,276.1c0.2,0.2,0.4,0.3,0.7,0.3c0.3,0,0.5-0.1,0.6-0.3c0.2-0.2,0.3-0.4,0.3-0.7
	s-0.1-0.5-0.3-0.7c-0.2-0.2-0.4-0.3-0.6-0.3c-0.3,0-0.5,0.1-0.7,0.3c-0.2,0.2-0.3,0.4-0.3,0.7S511,275.9,511.1,276.1z"/>
<path d="M200.4,223.1c0.4-0.9,0.8-1.8,1.1-2.9c0.3-1,0.5-1.9,0.6-2.7h1c0.1,0.8,0.3,1.7,0.6,2.7s0.7,2,1.1,2.9
	c0.4,0.9,0.8,1.6,1.1,2l-0.9,0.7c-0.3-0.6-0.7-1.4-1.2-2.6c-0.5-1.1-0.8-2.3-1.1-3.4c-0.3,1.2-0.7,2.3-1.1,3.4s-0.8,2-1.2,2.5
	l-0.9-0.7C199.6,224.7,200,224,200.4,223.1z"/>
<path d="M531.2,223.1c0.4-0.9,0.8-1.8,1.1-2.9c0.3-1,0.5-1.9,0.6-2.7h1c0.1,0.8,0.3,1.7,0.6,2.7c0.3,1,0.7,2,1.1,2.9
	c0.4,0.9,0.8,1.6,1.1,2l-0.9,0.7c-0.3-0.6-0.7-1.4-1.2-2.6s-0.8-2.3-1.1-3.4c-0.3,1.2-0.7,2.3-1.1,3.4c-0.4,1.1-0.8,2-1.2,2.5
	l-0.9-0.7C530.4,224.7,530.8,224,531.2,223.1z"/>
<path d="M204.8,193.9c-0.4,0.9-0.8,1.8-1.1,2.9c-0.3,1-0.5,1.9-0.6,2.7h-1c-0.1-0.8-0.3-1.7-0.6-2.7s-0.7-2-1.1-2.9
	c-0.4-0.9-0.8-1.6-1.1-2l0.9-0.7c0.3,0.6,0.7,1.4,1.2,2.6c0.5,1.1,0.8,2.3,1.1,3.4c0.3-1.2,0.7-2.3,1.1-3.4s0.8-2,1.2-2.5l0.9,0.7
	C205.6,192.3,205.2,193,204.8,193.9z"/>
<path d="M535.6,193.9c-0.4,0.9-0.8,1.8-1.1,2.9s-0.5,1.9-0.6,2.7h-1c-0.1-0.8-0.3-1.7-0.6-2.7c-0.3-1-0.7-2-1.1-2.9
	c-0.4-0.9-0.8-1.6-1.1-2l0.9-0.7c0.3,0.6,0.7,1.4,1.2,2.6s0.8,2.3,1.1,3.4c0.3-1.2,0.7-2.3,1.1-3.4c0.4-1.1,0.8-2,1.2-2.5l0.9,0.7
	C536.4,192.3,536,193,535.6,193.9z"/>
<path d="M202.2,169.4c-0.5-0.1-0.9-0.3-1.2-0.7s-0.4-0.8-0.4-1.3c0-0.4,0.1-0.7,0.3-1.1c0.2-0.4,0.4-0.6,0.8-0.9
	c0.3-0.2,0.7-0.4,1.2-0.4c0.1,0,0.1,0,0.3,0c0.3,0,0.6,0.1,0.9,0.2c0.3,0.1,0.5,0.2,0.7,0.4l-0.4,0.8c-0.3-0.2-0.7-0.3-1.1-0.3
	c-0.1,0-0.2,0-0.3,0c-0.4,0-0.7,0.2-1,0.4s-0.4,0.5-0.4,0.9c0,0.3,0.1,0.5,0.3,0.7c0.2,0.2,0.5,0.3,0.9,0.3c0.4,0,0.9-0.1,1.4-0.4
	c0.3-0.2,0.6-0.3,1-0.5l0.2,1.1c-0.6,0.2-1.2,0.6-1.8,1c-0.6,0.4-1.1,1-1.6,1.6c-0.5,0.6-0.9,1.4-1.2,2.2l-0.9-0.4
	C200.4,171.6,201.1,170.5,202.2,169.4z"/>
<path d="M532.9,169.4c-0.5-0.1-0.9-0.3-1.2-0.7c-0.3-0.4-0.4-0.8-0.4-1.3c0-0.4,0.1-0.7,0.3-1.1c0.2-0.4,0.4-0.6,0.8-0.9
	c0.3-0.2,0.7-0.4,1.2-0.4c0.1,0,0.1,0,0.3,0c0.3,0,0.6,0.1,0.9,0.2c0.3,0.1,0.5,0.2,0.7,0.4l-0.4,0.8c-0.3-0.2-0.7-0.3-1.1-0.3
	c-0.1,0-0.2,0-0.3,0c-0.4,0-0.7,0.2-1,0.4s-0.4,0.5-0.4,0.9c0,0.3,0.1,0.5,0.3,0.7c0.2,0.2,0.5,0.3,0.9,0.3c0.4,0,0.9-0.1,1.4-0.4
	c0.3-0.2,0.6-0.3,1-0.5l0.2,1.1c-0.6,0.2-1.2,0.6-1.8,1c-0.6,0.4-1.1,1-1.6,1.6s-0.9,1.4-1.2,2.2l-0.9-0.4
	C531.1,171.6,531.9,170.5,532.9,169.4z"/>
<path d="M200.2,142.2c0.4-0.7,0.8-1.5,1.4-2.2l-0.4-0.3l0.6-1c1.2,0.9,2.1,1.9,2.9,2.8c0.7,1,1.1,2,1.1,3.1c0,0.7-0.2,1.3-0.5,1.7
	c-0.3,0.4-0.8,0.6-1.3,0.6c-0.2,0-0.5-0.1-0.7-0.2s-0.4-0.3-0.6-0.5c-0.3,0.5-0.7,0.7-1.3,0.7c-0.6,0-1-0.2-1.4-0.6
	c-0.3-0.4-0.5-1-0.5-1.7c0-0.1,0-0.2,0-0.4C199.6,143.7,199.8,143,200.2,142.2z M200.7,145.6c0.2,0.2,0.4,0.3,0.7,0.3
	c0.3,0,0.5-0.1,0.6-0.4s0.2-0.6,0.2-1.1l0.9-0.1c0,0.5,0.1,0.9,0.3,1.2c0.1,0.3,0.3,0.4,0.6,0.4c0.6,0,0.9-0.4,0.9-1.3
	c0-0.7-0.2-1.4-0.7-2s-1.1-1.3-1.8-2c-0.6,0.7-1,1.4-1.4,2.1c-0.3,0.7-0.5,1.3-0.5,1.9C200.5,145,200.5,145.4,200.7,145.6z"/>
<path d="M530.9,142.2c0.4-0.7,0.8-1.5,1.4-2.2l-0.4-0.3l0.6-1c1.2,0.9,2.1,1.9,2.9,2.8s1.1,2,1.1,3.1c0,0.7-0.2,1.3-0.5,1.7
	c-0.3,0.4-0.8,0.6-1.3,0.6c-0.2,0-0.5-0.1-0.7-0.2s-0.4-0.3-0.6-0.5c-0.3,0.5-0.7,0.7-1.3,0.7c-0.6,0-1-0.2-1.4-0.6
	c-0.3-0.4-0.5-1-0.5-1.7c0-0.1,0-0.2,0-0.4C530.3,143.7,530.6,143,530.9,142.2z M531.5,145.6c0.2,0.2,0.4,0.3,0.7,0.3
	c0.3,0,0.5-0.1,0.6-0.4s0.2-0.6,0.2-1.1l0.9-0.1c0,0.5,0.1,0.9,0.3,1.2c0.1,0.3,0.3,0.4,0.6,0.4c0.6,0,0.9-0.4,0.9-1.3
	c0-0.7-0.2-1.4-0.7-2c-0.4-0.7-1.1-1.3-1.8-2c-0.6,0.7-1,1.4-1.4,2.1c-0.3,0.7-0.5,1.3-0.5,1.9C531.2,145,531.3,145.4,531.5,145.6z"
	/>
<path d="M200.6,120.2c0-0.6,0-1.3-0.1-2c0-0.7-0.1-1.3-0.1-1.8c-0.1-0.7-0.2-1.3-0.3-1.8c-0.1-0.5-0.3-1-0.5-1.5l1-0.6
	c0.2,0.4,0.3,0.8,0.5,1.4c0.2,0.6,0.4,1.1,0.8,1.5l0-0.2c0-0.4,0.1-0.8,0.2-1.2s0.5-0.7,0.9-1s0.8-0.4,1.2-0.4c0.4,0,0.7,0.1,1,0.2
	c0.3,0.1,0.6,0.3,0.9,0.6l-0.4,0.8c-0.2-0.1-0.4-0.2-0.7-0.3s-0.5-0.1-0.8-0.1c-0.4,0-0.8,0.1-1.1,0.4c-0.3,0.2-0.4,0.5-0.4,0.9
	c0,0.4,0.1,0.7,0.4,0.9c0.2,0.2,0.6,0.3,1,0.3c0.5,0,1.2-0.2,1.9-0.6l0.3,1c-0.3,0.2-0.7,0.4-1.1,0.5c-0.4,0.1-0.8,0.2-1.3,0.2
	c-0.4,0-0.9-0.1-1.3-0.2c-0.4-0.1-0.8-0.4-1.2-0.7c0.1,1,0.2,2.2,0.2,3.7v0.7h-1V120.2z"/>
<path d="M531.4,120.2c0-0.6,0-1.3-0.1-2c0-0.7-0.1-1.3-0.1-1.8c-0.1-0.7-0.2-1.3-0.3-1.8c-0.1-0.5-0.3-1-0.5-1.5l1-0.6
	c0.2,0.4,0.3,0.8,0.5,1.4c0.2,0.6,0.4,1.1,0.8,1.5l0-0.2c0-0.4,0.1-0.8,0.2-1.2c0.2-0.4,0.5-0.7,0.9-1s0.8-0.4,1.2-0.4
	c0.4,0,0.7,0.1,1,0.2c0.3,0.1,0.6,0.3,0.9,0.6l-0.4,0.8c-0.2-0.1-0.4-0.2-0.7-0.3s-0.5-0.1-0.8-0.1c-0.4,0-0.8,0.1-1.1,0.4
	s-0.4,0.5-0.4,0.9c0,0.4,0.1,0.7,0.4,0.9c0.2,0.2,0.6,0.3,1,0.3c0.5,0,1.2-0.2,1.9-0.6l0.3,1c-0.3,0.2-0.7,0.4-1.1,0.5
	s-0.8,0.2-1.3,0.2c-0.4,0-0.9-0.1-1.3-0.2c-0.4-0.1-0.8-0.4-1.2-0.7c0.1,1,0.2,2.2,0.2,3.7v0.7h-1V120.2z"/>
<path d="M204.2,88.3c0.1,0.3,0.3,0.5,0.6,0.5c0.2,0,0.3-0.1,0.4-0.3c0.1-0.2,0.1-0.5,0.1-0.8c0-0.3,0-0.7-0.1-1.1l0.9-0.2
	c0.1,0.5,0.2,0.9,0.2,1.4c0,0.6-0.1,1.2-0.4,1.6c-0.3,0.4-0.6,0.6-1.1,0.6c-0.5,0-1-0.3-1.3-0.9c-0.2,0.3-0.4,0.6-0.6,0.8
	s-0.5,0.3-0.8,0.3c-0.4,0-0.7-0.1-1-0.3l0,0.4c0.1,1,0.2,2.2,0.2,3.7v0.7h-1V94c0-0.6,0-1.3-0.1-2c0-0.7-0.1-1.3-0.1-1.8
	c-0.1-0.7-0.2-1.3-0.3-1.8c-0.1-0.5-0.3-1-0.5-1.5l1-0.6c0.1,0.2,0.2,0.5,0.3,0.9c0.2,0.6,0.4,1,0.6,1.3c0.2,0.3,0.5,0.4,0.8,0.4
	c0.3,0,0.6-0.2,0.8-0.5c0.2-0.3,0.2-0.8,0.2-1.4l0-0.1l0.8-0.1C203.9,87.5,204,88,204.2,88.3z"/>
<path d="M534.9,88.3c0.1,0.3,0.3,0.5,0.6,0.5c0.2,0,0.3-0.1,0.4-0.3c0.1-0.2,0.1-0.5,0.1-0.8c0-0.3,0-0.7-0.1-1.1l0.9-0.2
	c0.1,0.5,0.2,0.9,0.2,1.4c0,0.6-0.1,1.2-0.4,1.6c-0.3,0.4-0.6,0.6-1.1,0.6c-0.5,0-1-0.3-1.3-0.9c-0.2,0.3-0.4,0.6-0.6,0.8
	s-0.5,0.3-0.8,0.3c-0.4,0-0.7-0.1-1-0.3l0,0.4c0.1,1,0.2,2.2,0.2,3.7v0.7h-1V94c0-0.6,0-1.3-0.1-2c0-0.7-0.1-1.3-0.1-1.8
	c-0.1-0.7-0.2-1.3-0.3-1.8c-0.1-0.5-0.3-1-0.5-1.5l1-0.6c0.1,0.2,0.2,0.5,0.3,0.9c0.2,0.6,0.4,1,0.6,1.3c0.2,0.3,0.5,0.4,0.8,0.4
	c0.3,0,0.6-0.2,0.8-0.5c0.2-0.3,0.2-0.8,0.2-1.4l0-0.1l0.8-0.1C534.7,87.5,534.8,88,534.9,88.3z"/>
<path d="M201.3,67.8c0-0.6,0-1.3-0.1-2c0-0.7-0.1-1.3-0.1-1.8c-0.1-0.7-0.2-1.3-0.3-1.8c-0.1-0.5-0.3-1-0.5-1.5l1-0.6
	c0.1,0.3,0.3,0.6,0.4,1c0.2,0.5,0.4,0.9,0.6,1.2c0.2,0.3,0.5,0.4,1,0.4c0.5,0,0.8-0.1,1-0.4c0.2-0.3,0.3-0.7,0.3-1.2
	c0-0.1,0-0.4,0-0.7l0.9-0.2c0.1,0.3,0.1,0.6,0.1,1c0,0.8-0.2,1.5-0.6,2c-0.4,0.5-0.9,0.8-1.6,0.8c-0.4,0-0.8-0.1-1.1-0.3l0,0.4
	c0.1,1,0.2,2.2,0.2,3.7v0.7h-1V67.8z"/>
<path d="M532.1,67.8c0-0.6,0-1.3-0.1-2c0-0.7-0.1-1.3-0.1-1.8c-0.1-0.7-0.2-1.3-0.3-1.8s-0.3-1-0.5-1.5l1-0.6c0.1,0.3,0.3,0.6,0.4,1
	c0.2,0.5,0.4,0.9,0.6,1.2s0.5,0.4,1,0.4c0.5,0,0.8-0.1,1-0.4c0.2-0.3,0.3-0.7,0.3-1.2c0-0.1,0-0.4,0-0.7l0.9-0.2
	c0.1,0.3,0.1,0.6,0.1,1c0,0.8-0.2,1.5-0.6,2c-0.4,0.5-0.9,0.8-1.6,0.8c-0.4,0-0.8-0.1-1.1-0.3l0,0.4c0.1,1,0.2,2.2,0.2,3.7v0.7h-1
	V67.8z"/>
<path d="M202.3,41.5c0-0.6,0-1.3-0.1-2c0-0.7-0.1-1.3-0.1-1.8c-0.1-0.7-0.2-1.3-0.3-1.8c-0.1-0.5-0.3-1-0.5-1.5l1-0.6
	c0.4,0.9,0.7,2.2,0.9,3.8c0.1,1,0.2,2.2,0.2,3.7v0.7h-1V41.5z"/>
<path d="M533.1,41.5c0-0.6,0-1.3-0.1-2c0-0.7-0.1-1.3-0.1-1.8c-0.1-0.7-0.2-1.3-0.3-1.8c-0.1-0.5-0.3-1-0.5-1.5l1-0.6
	c0.4,0.9,0.7,2.2,0.9,3.8c0.1,1,0.2,2.2,0.2,3.7v0.7h-1V41.5z"/>
<path d="M27.5,275.2c0.4-0.9,0.8-1.8,1.1-2.9c0.3-1,0.5-1.9,0.6-2.7h1c0.1,0.8,0.3,1.7,0.6,2.7s0.7,2,1.1,2.9c0.4,0.9,0.8,1.6,1.1,2
	l-0.9,0.7c-0.3-0.6-0.7-1.4-1.2-2.6c-0.5-1.1-0.8-2.3-1.1-3.4c-0.3,1.2-0.7,2.3-1.1,3.4c-0.4,1.1-0.8,2-1.2,2.5l-0.9-0.7
	C26.7,276.8,27.1,276.1,27.5,275.2z"/>
<path d="M169.1,275.2c0.4-0.9,0.8-1.8,1.1-2.9c0.3-1,0.5-1.9,0.6-2.7h1c0.1,0.8,0.3,1.7,0.6,2.7s0.7,2,1.1,2.9
	c0.4,0.9,0.8,1.6,1.1,2l-0.9,0.7c-0.3-0.6-0.7-1.4-1.2-2.6c-0.5-1.1-0.8-2.3-1.1-3.4c-0.3,1.2-0.7,2.3-1.1,3.4s-0.8,2-1.2,2.5
	l-0.9-0.7C168.4,276.8,168.7,276.1,169.1,275.2z"/>
<path d="M8.3,246c-0.4,0.9-0.8,1.8-1.1,2.9c-0.3,1-0.5,1.9-0.6,2.7h-1c-0.1-0.8-0.3-1.7-0.6-2.7s-0.7-2-1.1-2.9
	c-0.4-0.9-0.8-1.6-1.1-2l0.9-0.7c0.3,0.6,0.7,1.4,1.2,2.6c0.5,1.1,0.8,2.3,1.1,3.4c0.3-1.2,0.7-2.3,1.1-3.4s0.8-2,1.2-2.5l0.9,0.7
	C9,244.4,8.7,245.1,8.3,246z"/>
<path d="M173.6,246c-0.4,0.9-0.8,1.8-1.1,2.9c-0.3,1-0.5,1.9-0.6,2.7h-1c-0.1-0.8-0.3-1.7-0.6-2.7s-0.7-2-1.1-2.9
	c-0.4-0.9-0.8-1.6-1.1-2l0.9-0.7c0.3,0.6,0.7,1.4,1.2,2.6c0.5,1.1,0.8,2.3,1.1,3.4c0.3-1.2,0.7-2.3,1.1-3.4s0.8-2,1.2-2.5l0.9,0.7
	C174.3,244.4,174,245.1,173.6,246z"/>
<path d="M5.6,221.5c-0.5-0.1-0.9-0.3-1.2-0.7s-0.4-0.8-0.4-1.3c0-0.4,0.1-0.7,0.3-1.1c0.2-0.4,0.4-0.6,0.8-0.9
	c0.3-0.2,0.7-0.4,1.2-0.4c0.1,0,0.1,0,0.3,0c0.3,0,0.6,0.1,0.9,0.2c0.3,0.1,0.5,0.2,0.7,0.4l-0.4,0.8c-0.3-0.2-0.7-0.3-1.1-0.3
	c-0.1,0-0.2,0-0.3,0c-0.4,0-0.7,0.2-1,0.4s-0.4,0.5-0.4,0.9c0,0.3,0.1,0.5,0.3,0.7c0.2,0.2,0.5,0.3,0.9,0.3c0.4,0,0.9-0.1,1.4-0.4
	c0.3-0.2,0.6-0.3,1-0.5l0.2,1.1c-0.6,0.2-1.2,0.6-1.8,1c-0.6,0.4-1.1,1-1.6,1.6c-0.5,0.6-0.9,1.4-1.2,2.2l-0.9-0.4
	C3.8,223.7,4.5,222.5,5.6,221.5z"/>
<path d="M170.9,221.5c-0.5-0.1-0.9-0.3-1.2-0.7s-0.4-0.8-0.4-1.3c0-0.4,0.1-0.7,0.3-1.1s0.4-0.6,0.8-0.9c0.3-0.2,0.7-0.4,1.2-0.4
	c0.1,0,0.1,0,0.3,0c0.3,0,0.6,0.1,0.9,0.2c0.3,0.1,0.5,0.2,0.7,0.4l-0.4,0.8c-0.3-0.2-0.7-0.3-1.1-0.3c-0.1,0-0.2,0-0.3,0
	c-0.4,0-0.7,0.2-1,0.4s-0.4,0.5-0.4,0.9c0,0.3,0.1,0.5,0.3,0.7c0.2,0.2,0.5,0.3,0.9,0.3c0.4,0,0.9-0.1,1.4-0.4
	c0.3-0.2,0.6-0.3,1-0.5l0.2,1.1c-0.6,0.2-1.2,0.6-1.8,1c-0.6,0.4-1.1,1-1.6,1.6c-0.5,0.6-0.9,1.4-1.2,2.2l-0.9-0.4
	C169.1,223.7,169.9,222.6,170.9,221.5z"/>
<path d="M3.6,194.3c0.4-0.7,0.8-1.5,1.4-2.2l-0.4-0.3l0.6-1c1.2,0.9,2.1,1.9,2.9,2.8c0.7,1,1.1,2,1.1,3.1c0,0.7-0.2,1.3-0.5,1.7
	c-0.3,0.4-0.8,0.6-1.3,0.6c-0.2,0-0.5-0.1-0.7-0.2s-0.4-0.3-0.6-0.5c-0.3,0.5-0.7,0.7-1.3,0.7c-0.6,0-1-0.2-1.4-0.6
	c-0.3-0.4-0.5-1-0.5-1.7c0-0.1,0-0.2,0-0.4C3,195.8,3.2,195.1,3.6,194.3z M4.1,197.7c0.2,0.2,0.4,0.3,0.7,0.3c0.3,0,0.5-0.1,0.6-0.4
	s0.2-0.6,0.2-1.1l0.9-0.1c0,0.5,0.1,0.9,0.3,1.2c0.1,0.3,0.3,0.4,0.6,0.4c0.6,0,0.9-0.4,0.9-1.3c0-0.7-0.2-1.4-0.7-2s-1.1-1.3-1.8-2
	c-0.6,0.7-1,1.4-1.4,2.1c-0.3,0.7-0.5,1.3-0.5,1.9C3.9,197.1,4,197.5,4.1,197.7z"/>
<path d="M168.9,194.3c0.4-0.7,0.8-1.5,1.4-2.2l-0.4-0.3l0.6-1c1.2,0.9,2.1,1.9,2.9,2.8c0.7,1,1.1,2,1.1,3.1c0,0.7-0.2,1.3-0.5,1.7
	s-0.8,0.6-1.3,0.6c-0.2,0-0.5-0.1-0.7-0.2c-0.2-0.1-0.4-0.3-0.6-0.5c-0.3,0.5-0.7,0.7-1.3,0.7c-0.6,0-1-0.2-1.4-0.6
	c-0.3-0.4-0.5-1-0.5-1.7c0-0.1,0-0.2,0-0.4C168.3,195.8,168.5,195.1,168.9,194.3z M169.5,197.7c0.2,0.2,0.4,0.3,0.7,0.3
	c0.3,0,0.5-0.1,0.6-0.4s0.2-0.6,0.2-1.1l0.9-0.1c0,0.5,0.1,0.9,0.3,1.2c0.1,0.3,0.3,0.4,0.6,0.4c0.6,0,0.9-0.4,0.9-1.3
	c0-0.7-0.2-1.4-0.7-2c-0.4-0.7-1.1-1.3-1.8-2c-0.6,0.7-1,1.4-1.4,2.1c-0.3,0.7-0.5,1.3-0.5,1.9C169.2,197.1,169.3,197.5,169.5,197.7
	z"/>
<path d="M4,172.3c0-0.6,0-1.3-0.1-2c0-0.7-0.1-1.3-0.1-1.8c-0.1-0.7-0.2-1.3-0.3-1.8c-0.1-0.5-0.3-1-0.5-1.5l1-0.6
	c0.2,0.4,0.3,0.8,0.5,1.4c0.2,0.6,0.4,1.1,0.8,1.5l0-0.2c0-0.4,0.1-0.8,0.2-1.2s0.5-0.7,0.9-1s0.8-0.4,1.2-0.4c0.4,0,0.7,0.1,1,0.2
	s0.6,0.3,0.9,0.6l-0.4,0.8c-0.2-0.1-0.4-0.2-0.7-0.3c-0.3-0.1-0.5-0.1-0.8-0.1c-0.4,0-0.8,0.1-1.1,0.4c-0.3,0.2-0.4,0.5-0.4,0.9
	c0,0.4,0.1,0.7,0.4,0.9c0.2,0.2,0.6,0.3,1,0.3c0.5,0,1.2-0.2,1.9-0.6l0.3,1c-0.3,0.2-0.7,0.4-1.1,0.5c-0.4,0.1-0.8,0.2-1.3,0.2
	c-0.4,0-0.9-0.1-1.3-0.2c-0.4-0.1-0.8-0.4-1.2-0.7c0.1,1,0.2,2.2,0.2,3.7v0.7H4V172.3z"/>
<path d="M169.4,172.3c0-0.6,0-1.3-0.1-2s-0.1-1.3-0.1-1.8c-0.1-0.7-0.2-1.3-0.3-1.8c-0.1-0.5-0.3-1-0.5-1.5l1-0.6
	c0.2,0.4,0.3,0.8,0.5,1.4c0.2,0.6,0.4,1.1,0.8,1.5l0-0.2c0-0.4,0.1-0.8,0.2-1.2c0.2-0.4,0.5-0.7,0.9-1s0.8-0.4,1.2-0.4
	c0.4,0,0.7,0.1,1,0.2c0.3,0.1,0.6,0.3,0.9,0.6l-0.4,0.8c-0.2-0.1-0.4-0.2-0.7-0.3s-0.5-0.1-0.8-0.1c-0.4,0-0.8,0.1-1.1,0.4
	c-0.3,0.2-0.4,0.5-0.4,0.9c0,0.4,0.1,0.7,0.4,0.9c0.2,0.2,0.6,0.3,1,0.3c0.5,0,1.2-0.2,1.9-0.6l0.3,1c-0.3,0.2-0.7,0.4-1.1,0.5
	c-0.4,0.1-0.8,0.2-1.3,0.2c-0.4,0-0.9-0.1-1.3-0.2c-0.4-0.1-0.8-0.4-1.2-0.7c0.1,1,0.2,2.2,0.2,3.7v0.7h-1V172.3z"/>
<path d="M31.3,140.4c0.1,0.3,0.3,0.5,0.6,0.5c0.2,0,0.3-0.1,0.4-0.3c0.1-0.2,0.1-0.5,0.1-0.8c0-0.3,0-0.7-0.1-1.1l0.9-0.2
	c0.1,0.5,0.2,0.9,0.2,1.4c0,0.6-0.1,1.2-0.4,1.6c-0.3,0.4-0.6,0.6-1.1,0.6c-0.5,0-1-0.3-1.3-0.9c-0.2,0.3-0.4,0.6-0.6,0.8
	c-0.2,0.2-0.5,0.3-0.8,0.3c-0.4,0-0.7-0.1-1-0.3l0,0.4c0.1,1,0.2,2.2,0.2,3.7v0.7h-1v-0.5c0-0.6,0-1.3-0.1-2c0-0.7-0.1-1.3-0.1-1.8
	c-0.1-0.7-0.2-1.3-0.3-1.8c-0.1-0.5-0.3-1-0.5-1.5l1-0.6c0.1,0.2,0.2,0.5,0.3,0.9c0.2,0.6,0.4,1,0.6,1.3c0.2,0.3,0.5,0.4,0.8,0.4
	c0.3,0,0.6-0.2,0.8-0.5c0.2-0.3,0.2-0.8,0.2-1.4l0-0.1l0.8-0.1C31,139.6,31.1,140.1,31.3,140.4z"/>
<path d="M172.9,140.4c0.1,0.3,0.3,0.5,0.6,0.5c0.2,0,0.3-0.1,0.4-0.3c0.1-0.2,0.1-0.5,0.1-0.8c0-0.3,0-0.7-0.1-1.1l0.9-0.2
	c0.1,0.5,0.2,0.9,0.2,1.4c0,0.6-0.1,1.2-0.4,1.6s-0.6,0.6-1.1,0.6c-0.5,0-1-0.3-1.3-0.9c-0.2,0.3-0.4,0.6-0.6,0.8
	c-0.2,0.2-0.5,0.3-0.8,0.3c-0.4,0-0.7-0.1-1-0.3l0,0.4c0.1,1,0.2,2.2,0.2,3.7v0.7h-1v-0.5c0-0.6,0-1.3-0.1-2c0-0.7-0.1-1.3-0.1-1.8
	c-0.1-0.7-0.2-1.3-0.3-1.8c-0.1-0.5-0.3-1-0.5-1.5l1-0.6c0.1,0.2,0.2,0.5,0.3,0.9c0.2,0.6,0.4,1,0.6,1.3c0.2,0.3,0.5,0.4,0.8,0.4
	c0.3,0,0.6-0.2,0.8-0.5c0.2-0.3,0.2-0.8,0.2-1.4l0-0.1l0.8-0.1C172.7,139.6,172.8,140.1,172.9,140.4z"/>
<path d="M28.4,119.9c0-0.6,0-1.3-0.1-2c0-0.7-0.1-1.3-0.1-1.8c-0.1-0.7-0.2-1.3-0.3-1.8c-0.1-0.5-0.3-1-0.5-1.5l1-0.6
	c0.1,0.3,0.3,0.6,0.4,1c0.2,0.5,0.4,0.9,0.6,1.2c0.2,0.3,0.5,0.4,1,0.4c0.5,0,0.8-0.1,1-0.4c0.2-0.3,0.3-0.7,0.3-1.2
	c0-0.1,0-0.4,0-0.7l0.9-0.2c0.1,0.3,0.1,0.6,0.1,1c0,0.8-0.2,1.5-0.6,2c-0.4,0.5-0.9,0.8-1.6,0.8c-0.4,0-0.8-0.1-1.1-0.3l0,0.4
	c0.1,1,0.2,2.2,0.2,3.7v0.7h-1V119.9z"/>
<path d="M170,119.9c0-0.6,0-1.3-0.1-2c0-0.7-0.1-1.3-0.1-1.8c-0.1-0.7-0.2-1.3-0.3-1.8c-0.1-0.5-0.3-1-0.5-1.5l1-0.6
	c0.1,0.3,0.3,0.6,0.4,1c0.2,0.5,0.4,0.9,0.6,1.2c0.2,0.3,0.5,0.4,1,0.4c0.5,0,0.8-0.1,1-0.4c0.2-0.3,0.3-0.7,0.3-1.2
	c0-0.1,0-0.4,0-0.7l0.9-0.2c0.1,0.3,0.1,0.6,0.1,1c0,0.8-0.2,1.5-0.6,2s-0.9,0.8-1.6,0.8c-0.4,0-0.8-0.1-1.1-0.3l0,0.4
	c0.1,1,0.2,2.2,0.2,3.7v0.7h-1V119.9z"/>
<path d="M52.6,93.6c0-0.6,0-1.3-0.1-2c0-0.7-0.1-1.3-0.1-1.8c-0.1-0.7-0.2-1.3-0.3-1.8c-0.1-0.5-0.3-1-0.5-1.5l1-0.6
	c0.4,0.9,0.7,2.2,0.9,3.8c0.1,1,0.2,2.2,0.2,3.7v0.7h-1V93.6z"/>
<path d="M171.1,93.6c0-0.6,0-1.3-0.1-2c0-0.7-0.1-1.3-0.1-1.8c-0.1-0.7-0.2-1.3-0.3-1.8c-0.1-0.5-0.3-1-0.5-1.5l1-0.6
	c0.4,0.9,0.7,2.2,0.9,3.8c0.1,1,0.2,2.2,0.2,3.7v0.7h-1V93.6z"/>
<path d="M566.9,246c-0.4,0.9-0.8,1.8-1.1,2.9s-0.5,1.9-0.6,2.7h-1c-0.1-0.8-0.3-1.7-0.6-2.7c-0.3-1-0.7-2-1.1-2.9
	c-0.4-0.9-0.8-1.6-1.1-2l0.9-0.7c0.3,0.6,0.7,1.4,1.2,2.6s0.8,2.3,1.1,3.4c0.3-1.2,0.7-2.3,1.1-3.4c0.4-1.1,0.8-2,1.2-2.5l0.9,0.7
	C567.6,244.4,567.3,245.1,566.9,246z"/>
<path d="M732.2,246c-0.4,0.9-0.8,1.8-1.1,2.9s-0.5,1.9-0.6,2.7h-1c-0.1-0.8-0.3-1.7-0.6-2.7c-0.3-1-0.7-2-1.1-2.9
	c-0.4-0.9-0.8-1.6-1.1-2l0.9-0.7c0.3,0.6,0.7,1.4,1.2,2.6s0.8,2.3,1.1,3.4c0.3-1.2,0.7-2.3,1.1-3.4c0.4-1.1,0.8-2,1.2-2.5l0.9,0.7
	C732.9,244.4,732.6,245.1,732.2,246z"/>
<path d="M562.4,275.2c0.4-0.9,0.8-1.8,1.1-2.9c0.3-1,0.5-1.9,0.6-2.7h1c0.1,0.8,0.3,1.7,0.6,2.7c0.3,1,0.7,2,1.1,2.9
	c0.4,0.9,0.8,1.6,1.1,2l-0.9,0.7c-0.3-0.6-0.7-1.4-1.2-2.6s-0.8-2.3-1.1-3.4c-0.3,1.2-0.7,2.3-1.1,3.4c-0.4,1.1-0.8,2-1.2,2.5
	l-0.9-0.7C561.7,276.8,562,276.1,562.4,275.2z"/>
<path d="M727.7,275.2c0.4-0.9,0.8-1.8,1.1-2.9s0.5-1.9,0.6-2.7h1c0.1,0.8,0.3,1.7,0.6,2.7c0.3,1,0.7,2,1.1,2.9
	c0.4,0.9,0.8,1.6,1.1,2l-0.9,0.7c-0.3-0.6-0.7-1.4-1.2-2.6s-0.8-2.3-1.1-3.4c-0.3,1.2-0.7,2.3-1.1,3.4c-0.4,1.1-0.8,2-1.2,2.5
	l-0.9-0.7C727,276.8,727.3,276.1,727.7,275.2z"/>
<path d="M564.2,221.5c-0.5-0.1-0.9-0.3-1.2-0.7c-0.3-0.4-0.4-0.8-0.4-1.3c0-0.4,0.1-0.7,0.3-1.1c0.2-0.4,0.4-0.6,0.8-0.9
	c0.3-0.2,0.7-0.4,1.2-0.4c0.1,0,0.1,0,0.3,0c0.3,0,0.6,0.1,0.9,0.2c0.3,0.1,0.5,0.2,0.7,0.4l-0.4,0.8c-0.3-0.2-0.7-0.3-1.1-0.3
	c-0.1,0-0.2,0-0.3,0c-0.4,0-0.7,0.2-1,0.4s-0.4,0.5-0.4,0.9c0,0.3,0.1,0.5,0.3,0.7c0.2,0.2,0.5,0.3,0.9,0.3c0.4,0,0.9-0.1,1.4-0.4
	c0.3-0.2,0.6-0.3,1-0.5l0.2,1.1c-0.6,0.2-1.2,0.6-1.8,1c-0.6,0.4-1.1,1-1.6,1.6s-0.9,1.4-1.2,2.2l-0.9-0.4
	C562.4,223.7,563.1,222.5,564.2,221.5z"/>
<path d="M729.5,221.5c-0.5-0.1-0.9-0.3-1.2-0.7c-0.3-0.4-0.4-0.8-0.4-1.3c0-0.4,0.1-0.7,0.3-1.1c0.2-0.4,0.4-0.6,0.8-0.9
	c0.3-0.2,0.7-0.4,1.2-0.4c0.1,0,0.1,0,0.3,0c0.3,0,0.6,0.1,0.9,0.2c0.3,0.1,0.5,0.2,0.7,0.4l-0.4,0.8c-0.3-0.2-0.7-0.3-1.1-0.3
	c-0.1,0-0.2,0-0.3,0c-0.4,0-0.7,0.2-1,0.4s-0.4,0.5-0.4,0.9c0,0.3,0.1,0.5,0.3,0.7c0.2,0.2,0.5,0.3,0.9,0.3c0.4,0,0.9-0.1,1.4-0.4
	c0.3-0.2,0.6-0.3,1-0.5l0.2,1.1c-0.6,0.2-1.2,0.6-1.8,1c-0.6,0.4-1.1,1-1.6,1.6s-0.9,1.4-1.2,2.2l-0.9-0.4
	C727.7,223.7,728.5,222.6,729.5,221.5z"/>
<path d="M562.2,194.3c0.4-0.7,0.8-1.5,1.4-2.2l-0.4-0.3l0.6-1c1.2,0.9,2.1,1.9,2.9,2.8s1.1,2,1.1,3.1c0,0.7-0.2,1.3-0.5,1.7
	c-0.3,0.4-0.8,0.6-1.3,0.6c-0.2,0-0.5-0.1-0.7-0.2s-0.4-0.3-0.6-0.5c-0.3,0.5-0.7,0.7-1.3,0.7c-0.6,0-1-0.2-1.4-0.6
	c-0.3-0.4-0.5-1-0.5-1.7c0-0.1,0-0.2,0-0.4C561.6,195.8,561.8,195.1,562.2,194.3z M562.7,197.7c0.2,0.2,0.4,0.3,0.7,0.3
	c0.3,0,0.5-0.1,0.6-0.4s0.2-0.6,0.2-1.1l0.9-0.1c0,0.5,0.1,0.9,0.3,1.2c0.1,0.3,0.3,0.4,0.6,0.4c0.6,0,0.9-0.4,0.9-1.3
	c0-0.7-0.2-1.4-0.7-2c-0.4-0.7-1.1-1.3-1.8-2c-0.6,0.7-1,1.4-1.4,2.1c-0.3,0.7-0.5,1.3-0.5,1.9C562.5,197.1,562.6,197.5,562.7,197.7
	z"/>
<path d="M727.5,194.3c0.4-0.7,0.8-1.5,1.4-2.2l-0.4-0.3l0.6-1c1.2,0.9,2.1,1.9,2.9,2.8c0.7,1,1.1,2,1.1,3.1c0,0.7-0.2,1.3-0.5,1.7
	c-0.3,0.4-0.8,0.6-1.3,0.6c-0.2,0-0.5-0.1-0.7-0.2c-0.2-0.1-0.4-0.3-0.6-0.5c-0.3,0.5-0.7,0.7-1.3,0.7c-0.6,0-1-0.2-1.4-0.6
	c-0.3-0.4-0.5-1-0.5-1.7c0-0.1,0-0.2,0-0.4C726.9,195.8,727.1,195.1,727.5,194.3z M728.1,197.7c0.2,0.2,0.4,0.3,0.7,0.3
	c0.3,0,0.5-0.1,0.6-0.4s0.2-0.6,0.2-1.1l0.9-0.1c0,0.5,0.1,0.9,0.3,1.2c0.1,0.3,0.3,0.4,0.6,0.4c0.6,0,0.9-0.4,0.9-1.3
	c0-0.7-0.2-1.4-0.7-2c-0.4-0.7-1.1-1.3-1.8-2c-0.6,0.7-1,1.4-1.4,2.1c-0.3,0.7-0.5,1.3-0.5,1.9C727.8,197.1,727.9,197.5,728.1,197.7
	z"/>
<path d="M562.6,172.3c0-0.6,0-1.3-0.1-2c0-0.7-0.1-1.3-0.1-1.8c-0.1-0.7-0.2-1.3-0.3-1.8c-0.1-0.5-0.3-1-0.5-1.5l1-0.6
	c0.2,0.4,0.3,0.8,0.5,1.4c0.2,0.6,0.4,1.1,0.8,1.5l0-0.2c0-0.4,0.1-0.8,0.2-1.2c0.2-0.4,0.5-0.7,0.9-1s0.8-0.4,1.2-0.4
	c0.4,0,0.7,0.1,1,0.2c0.3,0.1,0.6,0.3,0.9,0.6l-0.4,0.8c-0.2-0.1-0.4-0.2-0.7-0.3c-0.3-0.1-0.5-0.1-0.8-0.1c-0.4,0-0.8,0.1-1.1,0.4
	s-0.4,0.5-0.4,0.9c0,0.4,0.1,0.7,0.4,0.9c0.2,0.2,0.6,0.3,1,0.3c0.5,0,1.2-0.2,1.9-0.6l0.3,1c-0.3,0.2-0.7,0.4-1.1,0.5
	s-0.8,0.2-1.3,0.2c-0.4,0-0.9-0.1-1.3-0.2s-0.8-0.4-1.2-0.7c0.1,1,0.2,2.2,0.2,3.7v0.7h-1V172.3z"/>
<path d="M728,172.3c0-0.6,0-1.3-0.1-2c0-0.7-0.1-1.3-0.1-1.8c-0.1-0.7-0.2-1.3-0.3-1.8c-0.1-0.5-0.3-1-0.5-1.5l1-0.6
	c0.2,0.4,0.3,0.8,0.5,1.4c0.2,0.6,0.4,1.1,0.8,1.5l0-0.2c0-0.4,0.1-0.8,0.2-1.2c0.2-0.4,0.5-0.7,0.9-1s0.8-0.4,1.2-0.4
	c0.4,0,0.7,0.1,1,0.2c0.3,0.1,0.6,0.3,0.9,0.6l-0.4,0.8c-0.2-0.1-0.4-0.2-0.7-0.3s-0.5-0.1-0.8-0.1c-0.4,0-0.8,0.1-1.1,0.4
	s-0.4,0.5-0.4,0.9c0,0.4,0.1,0.7,0.4,0.9c0.2,0.2,0.6,0.3,1,0.3c0.5,0,1.2-0.2,1.9-0.6l0.3,1c-0.3,0.2-0.7,0.4-1.1,0.5
	s-0.8,0.2-1.3,0.2c-0.4,0-0.9-0.1-1.3-0.2c-0.4-0.1-0.8-0.4-1.2-0.7c0.1,1,0.2,2.2,0.2,3.7v0.7h-1V172.3z"/>
<path d="M566.2,140.4c0.1,0.3,0.3,0.5,0.6,0.5c0.2,0,0.3-0.1,0.4-0.3c0.1-0.2,0.1-0.5,0.1-0.8c0-0.3,0-0.7-0.1-1.1l0.9-0.2
	c0.1,0.5,0.2,0.9,0.2,1.4c0,0.6-0.1,1.2-0.4,1.6c-0.3,0.4-0.6,0.6-1.1,0.6c-0.5,0-1-0.3-1.3-0.9c-0.2,0.3-0.4,0.6-0.6,0.8
	c-0.2,0.2-0.5,0.3-0.8,0.3c-0.4,0-0.7-0.1-1-0.3l0,0.4c0.1,1,0.2,2.2,0.2,3.7v0.7h-1v-0.5c0-0.6,0-1.3-0.1-2s-0.1-1.3-0.1-1.8
	c-0.1-0.7-0.2-1.3-0.3-1.8c-0.1-0.5-0.3-1-0.5-1.5l1-0.6c0.1,0.2,0.2,0.5,0.3,0.9c0.2,0.6,0.4,1,0.6,1.3c0.2,0.3,0.5,0.4,0.8,0.4
	c0.3,0,0.6-0.2,0.8-0.5s0.2-0.8,0.2-1.4l0-0.1l0.8-0.1C566,139.6,566.1,140.1,566.2,140.4z"/>
<path d="M707.9,140.4c0.1,0.3,0.3,0.5,0.6,0.5c0.2,0,0.3-0.1,0.4-0.3c0.1-0.2,0.1-0.5,0.1-0.8c0-0.3,0-0.7-0.1-1.1l0.9-0.2
	c0.1,0.5,0.2,0.9,0.2,1.4c0,0.6-0.1,1.2-0.4,1.6s-0.6,0.6-1.1,0.6c-0.5,0-1-0.3-1.3-0.9c-0.2,0.3-0.4,0.6-0.6,0.8
	c-0.2,0.2-0.5,0.3-0.8,0.3c-0.4,0-0.7-0.1-1-0.3l0,0.4c0.1,1,0.2,2.2,0.2,3.7v0.7h-1v-0.5c0-0.6,0-1.3-0.1-2c0-0.7-0.1-1.3-0.1-1.8
	c-0.1-0.7-0.2-1.3-0.3-1.8s-0.3-1-0.5-1.5l1-0.6c0.1,0.2,0.2,0.5,0.3,0.9c0.2,0.6,0.4,1,0.6,1.3c0.2,0.3,0.5,0.4,0.8,0.4
	c0.3,0,0.6-0.2,0.8-0.5c0.2-0.3,0.2-0.8,0.2-1.4l0-0.1l0.8-0.1C707.6,139.6,707.7,140.1,707.9,140.4z"/>
<path d="M563.3,119.9c0-0.6,0-1.3-0.1-2c0-0.7-0.1-1.3-0.1-1.8c-0.1-0.7-0.2-1.3-0.3-1.8s-0.3-1-0.5-1.5l1-0.6
	c0.1,0.3,0.3,0.6,0.4,1c0.2,0.5,0.4,0.9,0.6,1.2s0.5,0.4,1,0.4c0.5,0,0.8-0.1,1-0.4c0.2-0.3,0.3-0.7,0.3-1.2c0-0.1,0-0.4,0-0.7
	l0.9-0.2c0.1,0.3,0.1,0.6,0.1,1c0,0.8-0.2,1.5-0.6,2c-0.4,0.5-0.9,0.8-1.6,0.8c-0.4,0-0.8-0.1-1.1-0.3l0,0.4c0.1,1,0.2,2.2,0.2,3.7
	v0.7h-1V119.9z"/>
<path d="M705,119.9c0-0.6,0-1.3-0.1-2c0-0.7-0.1-1.3-0.1-1.8c-0.1-0.7-0.2-1.3-0.3-1.8c-0.1-0.5-0.3-1-0.5-1.5l1-0.6
	c0.1,0.3,0.3,0.6,0.4,1c0.2,0.5,0.4,0.9,0.6,1.2s0.5,0.4,1,0.4c0.5,0,0.8-0.1,1-0.4c0.2-0.3,0.3-0.7,0.3-1.2c0-0.1,0-0.4,0-0.7
	l0.9-0.2c0.1,0.3,0.1,0.6,0.1,1c0,0.8-0.2,1.5-0.6,2s-0.9,0.8-1.6,0.8c-0.4,0-0.8-0.1-1.1-0.3l0,0.4c0.1,1,0.2,2.2,0.2,3.7v0.7h-1
	V119.9z"/>
<path d="M563.9,93.6c0-0.6,0-1.3-0.1-2c0-0.7-0.1-1.3-0.1-1.8c-0.1-0.7-0.2-1.3-0.3-1.8c-0.1-0.5-0.3-1-0.5-1.5l1-0.6
	c0.4,0.9,0.7,2.2,0.9,3.8c0.1,1,0.2,2.2,0.2,3.7v0.7h-1V93.6z"/>
<path d="M682.4,93.6c0-0.6,0-1.3-0.1-2c0-0.7-0.1-1.3-0.1-1.8c-0.1-0.7-0.2-1.3-0.3-1.8s-0.3-1-0.5-1.5l1-0.6
	c0.4,0.9,0.7,2.2,0.9,3.8c0.1,1,0.2,2.2,0.2,3.7v0.7h-1V93.6z"/>
<path class="st0" id="1" d="M256.4,284.9h-13.5c-2,0-3.6-1.5-3.6-3.3v-16c0-1.8,1.6-3.3,3.6-3.3h13.5c2,0,3.6,1.5,3.6,3.3v16
	C260,283.5,258.4,284.9,256.4,284.9z"/>
<path class="st0" id="2" d="M280.1,284.9h-13.5c-2,0-3.6-1.5-3.6-3.3v-16c0-1.8,1.6-3.3,3.6-3.3h13.5c2,0,3.6,1.5,3.6,3.3v16
	C283.6,283.5,282,284.9,280.1,284.9z"/>
<path class="st0" id="3" d="M303.7,284.9h-13.5c-2,0-3.6-1.5-3.6-3.3v-16c0-1.8,1.6-3.3,3.6-3.3h13.5c2,0,3.6,1.5,3.6,3.3v16
	C307.3,283.5,305.7,284.9,303.7,284.9z"/>
<path class="st0" id="4" d="M327.4,284.9h-13.5c-2,0-3.6-1.5-3.6-3.3v-16c0-1.8,1.6-3.3,3.6-3.3h13.5c2,0,3.6,1.5,3.6,3.3v16
	C331,283.5,329.4,284.9,327.4,284.9z"/>
<path class="st0" id="5" d="M351.1,284.9h-13.5c-2,0-3.6-1.5-3.6-3.3v-16c0-1.8,1.6-3.3,3.6-3.3h13.5c2,0,3.6,1.5,3.6,3.3v16
	C354.6,283.5,353,284.9,351.1,284.9z"/>
<path class="st0" id="6" d="M374.7,284.9h-13.5c-2,0-3.6-1.5-3.6-3.3v-16c0-1.8,1.6-3.3,3.6-3.3h13.5c2,0,3.6,1.5,3.6,3.3v16
	C378.3,283.5,376.7,284.9,374.7,284.9z"/>
<path class="st0" id="7" d="M398.4,284.9h-13.5c-2,0-3.6-1.5-3.6-3.3v-16c0-1.8,1.6-3.3,3.6-3.3h13.5c2,0,3.6,1.5,3.6,3.3v16
	C401.9,283.5,400.4,284.9,398.4,284.9z"/>
<path class="st0" id="8" d="M422.1,284.9h-13.5c-2,0-3.6-1.5-3.6-3.3v-16c0-1.8,1.6-3.3,3.6-3.3h13.5c2,0,3.6,1.5,3.6,3.3v16
	C425.6,283.5,424,284.9,422.1,284.9z"/>
<path class="st0" id="9" d="M445.7,284.9h-13.5c-2,0-3.6-1.5-3.6-3.3v-16c0-1.8,1.6-3.3,3.6-3.3h13.5c2,0,3.6,1.5,3.6,3.3v16
	C449.3,283.5,447.7,284.9,445.7,284.9z"/>
<path class="st0" id="10" d="M469.4,284.9h-13.5c-2,0-3.6-1.5-3.6-3.3v-16c0-1.8,1.6-3.3,3.6-3.3h13.5c2,0,3.6,1.5,3.6,3.3v16
	C472.9,283.5,471.3,284.9,469.4,284.9z"/>
<path class="st0" id="11" d="M493,284.9h-13.5c-2,0-3.6-1.5-3.6-3.3v-16c0-1.8,1.6-3.3,3.6-3.3H493c2,0,3.6,1.5,3.6,3.3v16
	C496.6,283.5,495,284.9,493,284.9z"/>
<path class="st0" id="12" d="M232.7,75.5h-13.5c-2,0-3.6-1.5-3.6-3.3v-16c0-1.8,1.6-3.3,3.6-3.3h13.5c2,0,3.6,1.5,3.6,3.3v16
	C236.3,74,234.7,75.5,232.7,75.5z"/>
<path class="st0" id="13" d="M256.4,75.5h-13.5c-2,0-3.6-1.5-3.6-3.3v-16c0-1.8,1.6-3.3,3.6-3.3h13.5c2,0,3.6,1.5,3.6,3.3v16
	C260,74,258.4,75.5,256.4,75.5z"/>
<path class="st0" id="14" d="M280.1,75.5h-13.5c-2,0-3.6-1.5-3.6-3.3v-16c0-1.8,1.6-3.3,3.6-3.3h13.5c2,0,3.6,1.5,3.6,3.3v16
	C283.6,74,282,75.5,280.1,75.5z"/>
<path class="st0" id="15" d="M303.7,75.5h-13.5c-2,0-3.6-1.5-3.6-3.3v-16c0-1.8,1.6-3.3,3.6-3.3h13.5c2,0,3.6,1.5,3.6,3.3v16
	C307.3,74,305.7,75.5,303.7,75.5z"/>
<path class="st0" id="16" d="M327.4,75.5h-13.5c-2,0-3.6-1.5-3.6-3.3v-16c0-1.8,1.6-3.3,3.6-3.3h13.5c2,0,3.6,1.5,3.6,3.3v16
	C331,74,329.4,75.5,327.4,75.5z"/>
<path class="st0" id="17" d="M351.1,75.5h-13.5c-2,0-3.6-1.5-3.6-3.3v-16c0-1.8,1.6-3.3,3.6-3.3h13.5c2,0,3.6,1.5,3.6,3.3v16
	C354.6,74,353,75.5,351.1,75.5z"/>
<path class="st0" id="18" d="M374.7,75.5h-13.5c-2,0-3.6-1.5-3.6-3.3v-16c0-1.8,1.6-3.3,3.6-3.3h13.5c2,0,3.6,1.5,3.6,3.3v16
	C378.3,74,376.7,75.5,374.7,75.5z"/>
<path class="st0" id="19" d="M398.4,75.5h-13.5c-2,0-3.6-1.5-3.6-3.3v-16c0-1.8,1.6-3.3,3.6-3.3h13.5c2,0,3.6,1.5,3.6,3.3v16
	C401.9,74,400.4,75.5,398.4,75.5z"/>
<path class="st0" id="20" d="M422.1,75.5h-13.5c-2,0-3.6-1.5-3.6-3.3v-16c0-1.8,1.6-3.3,3.6-3.3h13.5c2,0,3.6,1.5,3.6,3.3v16
	C425.6,74,424,75.5,422.1,75.5z"/>
<path class="st0" id="21" d="M445.7,75.5h-13.5c-2,0-3.6-1.5-3.6-3.3v-16c0-1.8,1.6-3.3,3.6-3.3h13.5c2,0,3.6,1.5,3.6,3.3v16
	C449.3,74,447.7,75.5,445.7,75.5z"/>
<path class="st0" id="22" d="M469.4,75.5h-13.5c-2,0-3.6-1.5-3.6-3.3v-16c0-1.8,1.6-3.3,3.6-3.3h13.5c2,0,3.6,1.5,3.6,3.3v16
	C472.9,74,471.3,75.5,469.4,75.5z"/>
<path class="st0" d="M493,75.5h-13.5c-2,0-3.6-1.5-3.6-3.3v-16c0-1.8,1.6-3.3,3.6-3.3H493c2,0,3.6,1.5,3.6,3.3v16
	C496.6,74,495,75.5,493,75.5z"/>
<path class="st0" d="M516.7,75.5h-13.5c-2,0-3.6-1.5-3.6-3.3v-16c0-1.8,1.6-3.3,3.6-3.3h13.5c2,0,3.6,1.5,3.6,3.3v16
	C520.3,74,518.7,75.5,516.7,75.5z"/>
<path class="st0" d="M232.7,101.7h-13.5c-2,0-3.6-1.5-3.6-3.3v-16c0-1.8,1.6-3.3,3.6-3.3h13.5c2,0,3.6,1.5,3.6,3.3v16
	C236.3,100.2,234.7,101.7,232.7,101.7z"/>
<path class="st0" d="M256.4,101.7h-13.5c-2,0-3.6-1.5-3.6-3.3v-16c0-1.8,1.6-3.3,3.6-3.3h13.5c2,0,3.6,1.5,3.6,3.3v16
	C260,100.2,258.4,101.7,256.4,101.7z"/>
<path class="st0" d="M280.1,101.7h-13.5c-2,0-3.6-1.5-3.6-3.3v-16c0-1.8,1.6-3.3,3.6-3.3h13.5c2,0,3.6,1.5,3.6,3.3v16
	C283.6,100.2,282,101.7,280.1,101.7z"/>
<path class="st0" d="M303.7,101.7h-13.5c-2,0-3.6-1.5-3.6-3.3v-16c0-1.8,1.6-3.3,3.6-3.3h13.5c2,0,3.6,1.5,3.6,3.3v16
	C307.3,100.2,305.7,101.7,303.7,101.7z"/>
<path class="st0" d="M327.4,101.7h-13.5c-2,0-3.6-1.5-3.6-3.3v-16c0-1.8,1.6-3.3,3.6-3.3h13.5c2,0,3.6,1.5,3.6,3.3v16
	C331,100.2,329.4,101.7,327.4,101.7z"/>
<path class="st0" d="M351.1,101.7h-13.5c-2,0-3.6-1.5-3.6-3.3v-16c0-1.8,1.6-3.3,3.6-3.3h13.5c2,0,3.6,1.5,3.6,3.3v16
	C354.6,100.2,353,101.7,351.1,101.7z"/>
<path class="st0" d="M374.7,101.7h-13.5c-2,0-3.6-1.5-3.6-3.3v-16c0-1.8,1.6-3.3,3.6-3.3h13.5c2,0,3.6,1.5,3.6,3.3v16
	C378.3,100.2,376.7,101.7,374.7,101.7z"/>
<path class="st0" d="M398.4,101.7h-13.5c-2,0-3.6-1.5-3.6-3.3v-16c0-1.8,1.6-3.3,3.6-3.3h13.5c2,0,3.6,1.5,3.6,3.3v16
	C401.9,100.2,400.4,101.7,398.4,101.7z"/>
<path class="st0" d="M422.1,101.7h-13.5c-2,0-3.6-1.5-3.6-3.3v-16c0-1.8,1.6-3.3,3.6-3.3h13.5c2,0,3.6,1.5,3.6,3.3v16
	C425.6,100.2,424,101.7,422.1,101.7z"/>
<path class="st0" d="M445.7,101.7h-13.5c-2,0-3.6-1.5-3.6-3.3v-16c0-1.8,1.6-3.3,3.6-3.3h13.5c2,0,3.6,1.5,3.6,3.3v16
	C449.3,100.2,447.7,101.7,445.7,101.7z"/>
<path class="st0" d="M469.4,101.7h-13.5c-2,0-3.6-1.5-3.6-3.3v-16c0-1.8,1.6-3.3,3.6-3.3h13.5c2,0,3.6,1.5,3.6,3.3v16
	C472.9,100.2,471.3,101.7,469.4,101.7z"/>
<path class="st0" d="M493,101.7h-13.5c-2,0-3.6-1.5-3.6-3.3v-16c0-1.8,1.6-3.3,3.6-3.3H493c2,0,3.6,1.5,3.6,3.3v16
	C496.6,100.2,495,101.7,493,101.7z"/>
<path class="st0" d="M516.7,101.7h-13.5c-2,0-3.6-1.5-3.6-3.3v-16c0-1.8,1.6-3.3,3.6-3.3h13.5c2,0,3.6,1.5,3.6,3.3v16
	C520.3,100.2,518.7,101.7,516.7,101.7z"/>
<path class="st0" d="M232.7,127.9h-13.5c-2,0-3.6-1.5-3.6-3.3v-16c0-1.8,1.6-3.3,3.6-3.3h13.5c2,0,3.6,1.5,3.6,3.3v16
	C236.3,126.5,234.7,127.9,232.7,127.9z"/>
<path class="st0" d="M256.4,127.9h-13.5c-2,0-3.6-1.5-3.6-3.3v-16c0-1.8,1.6-3.3,3.6-3.3h13.5c2,0,3.6,1.5,3.6,3.3v16
	C260,126.5,258.4,127.9,256.4,127.9z"/>
<path class="st0" d="M280.1,127.9h-13.5c-2,0-3.6-1.5-3.6-3.3v-16c0-1.8,1.6-3.3,3.6-3.3h13.5c2,0,3.6,1.5,3.6,3.3v16
	C283.6,126.5,282,127.9,280.1,127.9z"/>
<path class="st0" d="M303.7,127.9h-13.5c-2,0-3.6-1.5-3.6-3.3v-16c0-1.8,1.6-3.3,3.6-3.3h13.5c2,0,3.6,1.5,3.6,3.3v16
	C307.3,126.5,305.7,127.9,303.7,127.9z"/>
<path class="st0" d="M327.4,127.9h-13.5c-2,0-3.6-1.5-3.6-3.3v-16c0-1.8,1.6-3.3,3.6-3.3h13.5c2,0,3.6,1.5,3.6,3.3v16
	C331,126.5,329.4,127.9,327.4,127.9z"/>
<path class="st0" d="M351.1,127.9h-13.5c-2,0-3.6-1.5-3.6-3.3v-16c0-1.8,1.6-3.3,3.6-3.3h13.5c2,0,3.6,1.5,3.6,3.3v16
	C354.6,126.5,353,127.9,351.1,127.9z"/>
<path class="st0" d="M374.7,127.9h-13.5c-2,0-3.6-1.5-3.6-3.3v-16c0-1.8,1.6-3.3,3.6-3.3h13.5c2,0,3.6,1.5,3.6,3.3v16
	C378.3,126.5,376.7,127.9,374.7,127.9z"/>
<path class="st0" d="M398.4,127.9h-13.5c-2,0-3.6-1.5-3.6-3.3v-16c0-1.8,1.6-3.3,3.6-3.3h13.5c2,0,3.6,1.5,3.6,3.3v16
	C401.9,126.5,400.4,127.9,398.4,127.9z"/>
<path class="st0" d="M422.1,127.9h-13.5c-2,0-3.6-1.5-3.6-3.3v-16c0-1.8,1.6-3.3,3.6-3.3h13.5c2,0,3.6,1.5,3.6,3.3v16
	C425.6,126.5,424,127.9,422.1,127.9z"/>
<path class="st0" d="M445.7,127.9h-13.5c-2,0-3.6-1.5-3.6-3.3v-16c0-1.8,1.6-3.3,3.6-3.3h13.5c2,0,3.6,1.5,3.6,3.3v16
	C449.3,126.5,447.7,127.9,445.7,127.9z"/>
<path class="st0" d="M469.4,127.9h-13.5c-2,0-3.6-1.5-3.6-3.3v-16c0-1.8,1.6-3.3,3.6-3.3h13.5c2,0,3.6,1.5,3.6,3.3v16
	C472.9,126.5,471.3,127.9,469.4,127.9z"/>
<path class="st0" d="M493,127.9h-13.5c-2,0-3.6-1.5-3.6-3.3v-16c0-1.8,1.6-3.3,3.6-3.3H493c2,0,3.6,1.5,3.6,3.3v16
	C496.6,126.5,495,127.9,493,127.9z"/>
<path class="st0" d="M516.7,127.9h-13.5c-2,0-3.6-1.5-3.6-3.3v-16c0-1.8,1.6-3.3,3.6-3.3h13.5c2,0,3.6,1.5,3.6,3.3v16
	C520.3,126.5,518.7,127.9,516.7,127.9z"/>
<path class="st0" d="M232.7,154.1h-13.5c-2,0-3.6-1.5-3.6-3.3v-16c0-1.8,1.6-3.3,3.6-3.3h13.5c2,0,3.6,1.5,3.6,3.3v16
	C236.3,152.7,234.7,154.1,232.7,154.1z"/>
<path class="st0" d="M256.4,154.1h-13.5c-2,0-3.6-1.5-3.6-3.3v-16c0-1.8,1.6-3.3,3.6-3.3h13.5c2,0,3.6,1.5,3.6,3.3v16
	C260,152.7,258.4,154.1,256.4,154.1z"/>
<path class="st0" d="M280.1,154.1h-13.5c-2,0-3.6-1.5-3.6-3.3v-16c0-1.8,1.6-3.3,3.6-3.3h13.5c2,0,3.6,1.5,3.6,3.3v16
	C283.6,152.7,282,154.1,280.1,154.1z"/>
<path class="st0" d="M303.7,154.1h-13.5c-2,0-3.6-1.5-3.6-3.3v-16c0-1.8,1.6-3.3,3.6-3.3h13.5c2,0,3.6,1.5,3.6,3.3v16
	C307.3,152.7,305.7,154.1,303.7,154.1z"/>
<path class="st0" d="M327.4,154.1h-13.5c-2,0-3.6-1.5-3.6-3.3v-16c0-1.8,1.6-3.3,3.6-3.3h13.5c2,0,3.6,1.5,3.6,3.3v16
	C331,152.7,329.4,154.1,327.4,154.1z"/>
<path class="st0" d="M351.1,154.1h-13.5c-2,0-3.6-1.5-3.6-3.3v-16c0-1.8,1.6-3.3,3.6-3.3h13.5c2,0,3.6,1.5,3.6,3.3v16
	C354.6,152.7,353,154.1,351.1,154.1z"/>
<path class="st0" d="M374.7,154.1h-13.5c-2,0-3.6-1.5-3.6-3.3v-16c0-1.8,1.6-3.3,3.6-3.3h13.5c2,0,3.6,1.5,3.6,3.3v16
	C378.3,152.7,376.7,154.1,374.7,154.1z"/>
<path class="st0" d="M398.4,154.1h-13.5c-2,0-3.6-1.5-3.6-3.3v-16c0-1.8,1.6-3.3,3.6-3.3h13.5c2,0,3.6,1.5,3.6,3.3v16
	C401.9,152.7,400.4,154.1,398.4,154.1z"/>
<path class="st0" d="M422.1,154.1h-13.5c-2,0-3.6-1.5-3.6-3.3v-16c0-1.8,1.6-3.3,3.6-3.3h13.5c2,0,3.6,1.5,3.6,3.3v16
	C425.6,152.7,424,154.1,422.1,154.1z"/>
<path class="st0" d="M445.7,154.1h-13.5c-2,0-3.6-1.5-3.6-3.3v-16c0-1.8,1.6-3.3,3.6-3.3h13.5c2,0,3.6,1.5,3.6,3.3v16
	C449.3,152.7,447.7,154.1,445.7,154.1z"/>
<path class="st0" d="M469.4,154.1h-13.5c-2,0-3.6-1.5-3.6-3.3v-16c0-1.8,1.6-3.3,3.6-3.3h13.5c2,0,3.6,1.5,3.6,3.3v16
	C472.9,152.7,471.3,154.1,469.4,154.1z"/>
<path class="st0" d="M493,154.1h-13.5c-2,0-3.6-1.5-3.6-3.3v-16c0-1.8,1.6-3.3,3.6-3.3H493c2,0,3.6,1.5,3.6,3.3v16
	C496.6,152.7,495,154.1,493,154.1z"/>
<path class="st0" d="M516.7,154.1h-13.5c-2,0-3.6-1.5-3.6-3.3v-16c0-1.8,1.6-3.3,3.6-3.3h13.5c2,0,3.6,1.5,3.6,3.3v16
	C520.3,152.7,518.7,154.1,516.7,154.1z"/>
<path class="st0" d="M232.7,180.4h-13.5c-2,0-3.6-1.5-3.6-3.3v-16c0-1.8,1.6-3.3,3.6-3.3h13.5c2,0,3.6,1.5,3.6,3.3v16
	C236.3,178.9,234.7,180.4,232.7,180.4z"/>
<path class="st0" d="M256.4,180.4h-13.5c-2,0-3.6-1.5-3.6-3.3v-16c0-1.8,1.6-3.3,3.6-3.3h13.5c2,0,3.6,1.5,3.6,3.3v16
	C260,178.9,258.4,180.4,256.4,180.4z"/>
<path class="st0" d="M280.1,180.4h-13.5c-2,0-3.6-1.5-3.6-3.3v-16c0-1.8,1.6-3.3,3.6-3.3h13.5c2,0,3.6,1.5,3.6,3.3v16
	C283.6,178.9,282,180.4,280.1,180.4z"/>
<path class="st0" d="M303.7,180.4h-13.5c-2,0-3.6-1.5-3.6-3.3v-16c0-1.8,1.6-3.3,3.6-3.3h13.5c2,0,3.6,1.5,3.6,3.3v16
	C307.3,178.9,305.7,180.4,303.7,180.4z"/>
<path class="st0" d="M327.4,180.4h-13.5c-2,0-3.6-1.5-3.6-3.3v-16c0-1.8,1.6-3.3,3.6-3.3h13.5c2,0,3.6,1.5,3.6,3.3v16
	C331,178.9,329.4,180.4,327.4,180.4z"/>
<path class="st0" d="M351.1,180.4h-13.5c-2,0-3.6-1.5-3.6-3.3v-16c0-1.8,1.6-3.3,3.6-3.3h13.5c2,0,3.6,1.5,3.6,3.3v16
	C354.6,178.9,353,180.4,351.1,180.4z"/>
<path class="st0" d="M374.7,180.4h-13.5c-2,0-3.6-1.5-3.6-3.3v-16c0-1.8,1.6-3.3,3.6-3.3h13.5c2,0,3.6,1.5,3.6,3.3v16
	C378.3,178.9,376.7,180.4,374.7,180.4z"/>
<path class="st0" d="M398.4,180.4h-13.5c-2,0-3.6-1.5-3.6-3.3v-16c0-1.8,1.6-3.3,3.6-3.3h13.5c2,0,3.6,1.5,3.6,3.3v16
	C401.9,178.9,400.4,180.4,398.4,180.4z"/>
<path class="st0" d="M422.1,180.4h-13.5c-2,0-3.6-1.5-3.6-3.3v-16c0-1.8,1.6-3.3,3.6-3.3h13.5c2,0,3.6,1.5,3.6,3.3v16
	C425.6,178.9,424,180.4,422.1,180.4z"/>
<path class="st0" d="M445.7,180.4h-13.5c-2,0-3.6-1.5-3.6-3.3v-16c0-1.8,1.6-3.3,3.6-3.3h13.5c2,0,3.6,1.5,3.6,3.3v16
	C449.3,178.9,447.7,180.4,445.7,180.4z"/>
<path class="st0" d="M469.4,180.4h-13.5c-2,0-3.6-1.5-3.6-3.3v-16c0-1.8,1.6-3.3,3.6-3.3h13.5c2,0,3.6,1.5,3.6,3.3v16
	C472.9,178.9,471.3,180.4,469.4,180.4z"/>
<path class="st0" d="M493,180.4h-13.5c-2,0-3.6-1.5-3.6-3.3v-16c0-1.8,1.6-3.3,3.6-3.3H493c2,0,3.6,1.5,3.6,3.3v16
	C496.6,178.9,495,180.4,493,180.4z"/>
<path class="st0" d="M516.7,180.4h-13.5c-2,0-3.6-1.5-3.6-3.3v-16c0-1.8,1.6-3.3,3.6-3.3h13.5c2,0,3.6,1.5,3.6,3.3v16
	C520.3,178.9,518.7,180.4,516.7,180.4z"/>
<path class="st0" d="M232.7,206.6h-13.5c-2,0-3.6-1.5-3.6-3.3v-16c0-1.8,1.6-3.3,3.6-3.3h13.5c2,0,3.6,1.5,3.6,3.3v16
	C236.3,205.1,234.7,206.6,232.7,206.6z"/>
<path class="st0" d="M256.4,206.6h-13.5c-2,0-3.6-1.5-3.6-3.3v-16c0-1.8,1.6-3.3,3.6-3.3h13.5c2,0,3.6,1.5,3.6,3.3v16
	C260,205.1,258.4,206.6,256.4,206.6z"/>
<path class="st0" d="M280.1,206.6h-13.5c-2,0-3.6-1.5-3.6-3.3v-16c0-1.8,1.6-3.3,3.6-3.3h13.5c2,0,3.6,1.5,3.6,3.3v16
	C283.6,205.1,282,206.6,280.1,206.6z"/>
<path class="st0" d="M303.7,206.6h-13.5c-2,0-3.6-1.5-3.6-3.3v-16c0-1.8,1.6-3.3,3.6-3.3h13.5c2,0,3.6,1.5,3.6,3.3v16
	C307.3,205.1,305.7,206.6,303.7,206.6z"/>
<path class="st0" d="M327.4,206.6h-13.5c-2,0-3.6-1.5-3.6-3.3v-16c0-1.8,1.6-3.3,3.6-3.3h13.5c2,0,3.6,1.5,3.6,3.3v16
	C331,205.1,329.4,206.6,327.4,206.6z"/>
<path class="st0" d="M351.1,206.6h-13.5c-2,0-3.6-1.5-3.6-3.3v-16c0-1.8,1.6-3.3,3.6-3.3h13.5c2,0,3.6,1.5,3.6,3.3v16
	C354.6,205.1,353,206.6,351.1,206.6z"/>
<path class="st0" d="M374.7,206.6h-13.5c-2,0-3.6-1.5-3.6-3.3v-16c0-1.8,1.6-3.3,3.6-3.3h13.5c2,0,3.6,1.5,3.6,3.3v16
	C378.3,205.1,376.7,206.6,374.7,206.6z"/>
<path class="st0" d="M398.4,206.6h-13.5c-2,0-3.6-1.5-3.6-3.3v-16c0-1.8,1.6-3.3,3.6-3.3h13.5c2,0,3.6,1.5,3.6,3.3v16
	C401.9,205.1,400.4,206.6,398.4,206.6z"/>
<path class="st0" d="M422.1,206.6h-13.5c-2,0-3.6-1.5-3.6-3.3v-16c0-1.8,1.6-3.3,3.6-3.3h13.5c2,0,3.6,1.5,3.6,3.3v16
	C425.6,205.1,424,206.6,422.1,206.6z"/>
<path class="st0" d="M445.7,206.6h-13.5c-2,0-3.6-1.5-3.6-3.3v-16c0-1.8,1.6-3.3,3.6-3.3h13.5c2,0,3.6,1.5,3.6,3.3v16
	C449.3,205.1,447.7,206.6,445.7,206.6z"/>
<path class="st0" d="M469.4,206.6h-13.5c-2,0-3.6-1.5-3.6-3.3v-16c0-1.8,1.6-3.3,3.6-3.3h13.5c2,0,3.6,1.5,3.6,3.3v16
	C472.9,205.1,471.3,206.6,469.4,206.6z"/>
<path class="st0" d="M493,206.6h-13.5c-2,0-3.6-1.5-3.6-3.3v-16c0-1.8,1.6-3.3,3.6-3.3H493c2,0,3.6,1.5,3.6,3.3v16
	C496.6,205.1,495,206.6,493,206.6z"/>
<path class="st0" d="M516.7,206.6h-13.5c-2,0-3.6-1.5-3.6-3.3v-16c0-1.8,1.6-3.3,3.6-3.3h13.5c2,0,3.6,1.5,3.6,3.3v16
	C520.3,205.1,518.7,206.6,516.7,206.6z"/>
<path class="st0" d="M232.7,232.8h-13.5c-2,0-3.6-1.5-3.6-3.3v-16c0-1.8,1.6-3.3,3.6-3.3h13.5c2,0,3.6,1.5,3.6,3.3v16
	C236.3,231.4,234.7,232.8,232.7,232.8z"/>
<path class="st0" d="M256.4,232.8h-13.5c-2,0-3.6-1.5-3.6-3.3v-16c0-1.8,1.6-3.3,3.6-3.3h13.5c2,0,3.6,1.5,3.6,3.3v16
	C260,231.4,258.4,232.8,256.4,232.8z"/>
<path class="st0" d="M280.1,232.8h-13.5c-2,0-3.6-1.5-3.6-3.3v-16c0-1.8,1.6-3.3,3.6-3.3h13.5c2,0,3.6,1.5,3.6,3.3v16
	C283.6,231.4,282,232.8,280.1,232.8z"/>
<path class="st0" d="M303.7,232.8h-13.5c-2,0-3.6-1.5-3.6-3.3v-16c0-1.8,1.6-3.3,3.6-3.3h13.5c2,0,3.6,1.5,3.6,3.3v16
	C307.3,231.4,305.7,232.8,303.7,232.8z"/>
<path class="st0" d="M327.4,232.8h-13.5c-2,0-3.6-1.5-3.6-3.3v-16c0-1.8,1.6-3.3,3.6-3.3h13.5c2,0,3.6,1.5,3.6,3.3v16
	C331,231.4,329.4,232.8,327.4,232.8z"/>
<path class="st0" d="M351.1,232.8h-13.5c-2,0-3.6-1.5-3.6-3.3v-16c0-1.8,1.6-3.3,3.6-3.3h13.5c2,0,3.6,1.5,3.6,3.3v16
	C354.6,231.4,353,232.8,351.1,232.8z"/>
<path class="st0" d="M374.7,232.8h-13.5c-2,0-3.6-1.5-3.6-3.3v-16c0-1.8,1.6-3.3,3.6-3.3h13.5c2,0,3.6,1.5,3.6,3.3v16
	C378.3,231.4,376.7,232.8,374.7,232.8z"/>
<path class="st0" d="M398.4,232.8h-13.5c-2,0-3.6-1.5-3.6-3.3v-16c0-1.8,1.6-3.3,3.6-3.3h13.5c2,0,3.6,1.5,3.6,3.3v16
	C401.9,231.4,400.4,232.8,398.4,232.8z"/>
<path class="st0" d="M422.1,232.8h-13.5c-2,0-3.6-1.5-3.6-3.3v-16c0-1.8,1.6-3.3,3.6-3.3h13.5c2,0,3.6,1.5,3.6,3.3v16
	C425.6,231.4,424,232.8,422.1,232.8z"/>
<path class="st0" d="M445.7,232.8h-13.5c-2,0-3.6-1.5-3.6-3.3v-16c0-1.8,1.6-3.3,3.6-3.3h13.5c2,0,3.6,1.5,3.6,3.3v16
	C449.3,231.4,447.7,232.8,445.7,232.8z"/>
<path class="st0" d="M469.4,232.8h-13.5c-2,0-3.6-1.5-3.6-3.3v-16c0-1.8,1.6-3.3,3.6-3.3h13.5c2,0,3.6,1.5,3.6,3.3v16
	C472.9,231.4,471.3,232.8,469.4,232.8z"/>
<path class="st0" d="M493,232.8h-13.5c-2,0-3.6-1.5-3.6-3.3v-16c0-1.8,1.6-3.3,3.6-3.3H493c2,0,3.6,1.5,3.6,3.3v16
	C496.6,231.4,495,232.8,493,232.8z"/>
<path class="st0" d="M516.7,232.8h-13.5c-2,0-3.6-1.5-3.6-3.3v-16c0-1.8,1.6-3.3,3.6-3.3h13.5c2,0,3.6,1.5,3.6,3.3v16
	C520.3,231.4,518.7,232.8,516.7,232.8z"/>
<path class="st0" d="M232.7,259.1h-13.5c-2,0-3.6-1.5-3.6-3.3v-16c0-1.8,1.6-3.3,3.6-3.3h13.5c2,0,3.6,1.5,3.6,3.3v16
	C236.3,257.6,234.7,259.1,232.7,259.1z"/>
<path class="st0" d="M256.4,259.1h-13.5c-2,0-3.6-1.5-3.6-3.3v-16c0-1.8,1.6-3.3,3.6-3.3h13.5c2,0,3.6,1.5,3.6,3.3v16
	C260,257.6,258.4,259.1,256.4,259.1z"/>
<path class="st0" d="M280.1,259.1h-13.5c-2,0-3.6-1.5-3.6-3.3v-16c0-1.8,1.6-3.3,3.6-3.3h13.5c2,0,3.6,1.5,3.6,3.3v16
	C283.6,257.6,282,259.1,280.1,259.1z"/>
<path class="st0" d="M303.7,259.1h-13.5c-2,0-3.6-1.5-3.6-3.3v-16c0-1.8,1.6-3.3,3.6-3.3h13.5c2,0,3.6,1.5,3.6,3.3v16
	C307.3,257.6,305.7,259.1,303.7,259.1z"/>
<path class="st0" d="M327.4,259.1h-13.5c-2,0-3.6-1.5-3.6-3.3v-16c0-1.8,1.6-3.3,3.6-3.3h13.5c2,0,3.6,1.5,3.6,3.3v16
	C331,257.6,329.4,259.1,327.4,259.1z"/>
<path class="st0" d="M351.1,259.1h-13.5c-2,0-3.6-1.5-3.6-3.3v-16c0-1.8,1.6-3.3,3.6-3.3h13.5c2,0,3.6,1.5,3.6,3.3v16
	C354.6,257.6,353,259.1,351.1,259.1z"/>
<path class="st0" d="M374.7,259.1h-13.5c-2,0-3.6-1.5-3.6-3.3v-16c0-1.8,1.6-3.3,3.6-3.3h13.5c2,0,3.6,1.5,3.6,3.3v16
	C378.3,257.6,376.7,259.1,374.7,259.1z"/>
<path class="st0" d="M398.4,259.1h-13.5c-2,0-3.6-1.5-3.6-3.3v-16c0-1.8,1.6-3.3,3.6-3.3h13.5c2,0,3.6,1.5,3.6,3.3v16
	C401.9,257.6,400.4,259.1,398.4,259.1z"/>
<path class="st0" d="M422.1,259.1h-13.5c-2,0-3.6-1.5-3.6-3.3v-16c0-1.8,1.6-3.3,3.6-3.3h13.5c2,0,3.6,1.5,3.6,3.3v16
	C425.6,257.6,424,259.1,422.1,259.1z"/>
<path class="st0" d="M445.7,259.1h-13.5c-2,0-3.6-1.5-3.6-3.3v-16c0-1.8,1.6-3.3,3.6-3.3h13.5c2,0,3.6,1.5,3.6,3.3v16
	C449.3,257.6,447.7,259.1,445.7,259.1z"/>
<path class="st0" d="M469.4,259.1h-13.5c-2,0-3.6-1.5-3.6-3.3v-16c0-1.8,1.6-3.3,3.6-3.3h13.5c2,0,3.6,1.5,3.6,3.3v16
	C472.9,257.6,471.3,259.1,469.4,259.1z"/>
<path class="st0" d="M493,259.1h-13.5c-2,0-3.6-1.5-3.6-3.3v-16c0-1.8,1.6-3.3,3.6-3.3H493c2,0,3.6,1.5,3.6,3.3v16
	C496.6,257.6,495,259.1,493,259.1z"/>
<path class="st0" d="M516.7,259.1h-13.5c-2,0-3.6-1.5-3.6-3.3v-16c0-1.8,1.6-3.3,3.6-3.3h13.5c2,0,3.6,1.5,3.6,3.3v16
	C520.3,257.6,518.7,259.1,516.7,259.1z"/>
<path class="st0" d="M232.7,49.2h-13.5c-2,0-3.6-1.5-3.6-3.3V30c0-1.8,1.6-3.3,3.6-3.3h13.5c2,0,3.6,1.5,3.6,3.3v16
	C236.3,47.8,234.7,49.2,232.7,49.2z"/>
<path class="st0" d="M256.4,49.2h-13.5c-2,0-3.6-1.5-3.6-3.3V30c0-1.8,1.6-3.3,3.6-3.3h13.5c2,0,3.6,1.5,3.6,3.3v16
	C260,47.8,258.4,49.2,256.4,49.2z"/>
<path class="st0" d="M280.1,49.2h-13.5c-2,0-3.6-1.5-3.6-3.3V30c0-1.8,1.6-3.3,3.6-3.3h13.5c2,0,3.6,1.5,3.6,3.3v16
	C283.6,47.8,282,49.2,280.1,49.2z"/>
<path class="st0" d="M303.7,49.2h-13.5c-2,0-3.6-1.5-3.6-3.3V30c0-1.8,1.6-3.3,3.6-3.3h13.5c2,0,3.6,1.5,3.6,3.3v16
	C307.3,47.8,305.7,49.2,303.7,49.2z"/>
<path class="st0" d="M327.4,49.2h-13.5c-2,0-3.6-1.5-3.6-3.3V30c0-1.8,1.6-3.3,3.6-3.3h13.5c2,0,3.6,1.5,3.6,3.3v16
	C331,47.8,329.4,49.2,327.4,49.2z"/>
<path class="st0" d="M351.1,49.2h-13.5c-2,0-3.6-1.5-3.6-3.3V30c0-1.8,1.6-3.3,3.6-3.3h13.5c2,0,3.6,1.5,3.6,3.3v16
	C354.6,47.8,353,49.2,351.1,49.2z"/>
<path class="st0" d="M374.7,49.2h-13.5c-2,0-3.6-1.5-3.6-3.3V30c0-1.8,1.6-3.3,3.6-3.3h13.5c2,0,3.6,1.5,3.6,3.3v16
	C378.3,47.8,376.7,49.2,374.7,49.2z"/>
<path class="st0" d="M398.4,49.2h-13.5c-2,0-3.6-1.5-3.6-3.3V30c0-1.8,1.6-3.3,3.6-3.3h13.5c2,0,3.6,1.5,3.6,3.3v16
	C401.9,47.8,400.4,49.2,398.4,49.2z"/>
<path class="st0" d="M422.1,49.2h-13.5c-2,0-3.6-1.5-3.6-3.3V30c0-1.8,1.6-3.3,3.6-3.3h13.5c2,0,3.6,1.5,3.6,3.3v16
	C425.6,47.8,424,49.2,422.1,49.2z"/>
<path class="st0" d="M445.7,49.2h-13.5c-2,0-3.6-1.5-3.6-3.3V30c0-1.8,1.6-3.3,3.6-3.3h13.5c2,0,3.6,1.5,3.6,3.3v16
	C449.3,47.8,447.7,49.2,445.7,49.2z"/>
<path class="st0" d="M469.4,49.2h-13.5c-2,0-3.6-1.5-3.6-3.3V30c0-1.8,1.6-3.3,3.6-3.3h13.5c2,0,3.6,1.5,3.6,3.3v16
	C472.9,47.8,471.3,49.2,469.4,49.2z"/>
<path class="st0" d="M493,49.2h-13.5c-2,0-3.6-1.5-3.6-3.3V30c0-1.8,1.6-3.3,3.6-3.3H493c2,0,3.6,1.5,3.6,3.3v16
	C496.6,47.8,495,49.2,493,49.2z"/>
<path class="st0" d="M516.7,49.2h-13.5c-2,0-3.6-1.5-3.6-3.3V30c0-1.8,1.6-3.3,3.6-3.3h13.5c2,0,3.6,1.5,3.6,3.3v16
	C520.3,47.8,518.7,49.2,516.7,49.2z"/>
<path class="st0" d="M59.8,284.9H46.3c-2,0-3.6-1.5-3.6-3.3v-16c0-1.8,1.6-3.3,3.6-3.3h13.5c2,0,3.6,1.5,3.6,3.3v16
	C63.4,283.5,61.8,284.9,59.8,284.9z"/>
<path class="st0" d="M83.5,284.9H69.9c-2,0-3.6-1.5-3.6-3.3v-16c0-1.8,1.6-3.3,3.6-3.3h13.5c2,0,3.6,1.5,3.6,3.3v16
	C87,283.5,85.4,284.9,83.5,284.9z"/>
<path class="st0" d="M107.1,284.9H93.6c-2,0-3.6-1.5-3.6-3.3v-16c0-1.8,1.6-3.3,3.6-3.3h13.5c2,0,3.6,1.5,3.6,3.3v16
	C110.7,283.5,109.1,284.9,107.1,284.9z"/>
<path class="st0" d="M130.8,284.9h-13.5c-2,0-3.6-1.5-3.6-3.3v-16c0-1.8,1.6-3.3,3.6-3.3h13.5c2,0,3.6,1.5,3.6,3.3v16
	C134.4,283.5,132.8,284.9,130.8,284.9z"/>
<path class="st0" d="M154.5,284.9h-13.5c-2,0-3.6-1.5-3.6-3.3v-16c0-1.8,1.6-3.3,3.6-3.3h13.5c2,0,3.6,1.5,3.6,3.3v16
	C158,283.5,156.4,284.9,154.5,284.9z"/>
<path class="st0" d="M36.2,258.7H22.6c-2,0-3.6-1.5-3.6-3.3v-16c0-1.8,1.6-3.3,3.6-3.3h13.5c2,0,3.6,1.5,3.6,3.3v16
	C39.7,257.2,38.1,258.7,36.2,258.7z"/>
<path class="st0" d="M59.8,258.7H46.3c-2,0-3.6-1.5-3.6-3.3v-16c0-1.8,1.6-3.3,3.6-3.3h13.5c2,0,3.6,1.5,3.6,3.3v16
	C63.4,257.2,61.8,258.7,59.8,258.7z"/>
<path class="st0" d="M83.5,258.7H69.9c-2,0-3.6-1.5-3.6-3.3v-16c0-1.8,1.6-3.3,3.6-3.3h13.5c2,0,3.6,1.5,3.6,3.3v16
	C87,257.2,85.5,258.7,83.5,258.7z"/>
<path class="st0" d="M107.1,258.7H93.6c-2,0-3.6-1.5-3.6-3.3v-16c0-1.8,1.6-3.3,3.6-3.3h13.5c2,0,3.6,1.5,3.6,3.3v16
	C110.7,257.2,109.1,258.7,107.1,258.7z"/>
<path class="st0" d="M130.8,258.7h-13.5c-2,0-3.6-1.5-3.6-3.3v-16c0-1.8,1.6-3.3,3.6-3.3h13.5c2,0,3.6,1.5,3.6,3.3v16
	C134.4,257.2,132.8,258.7,130.8,258.7z"/>
<path class="st0" d="M154.5,258.7h-13.5c-2,0-3.6-1.5-3.6-3.3v-16c0-1.8,1.6-3.3,3.6-3.3h13.5c2,0,3.6,1.5,3.6,3.3v16
	C158,257.2,156.4,258.7,154.5,258.7z"/>
<path class="st0" d="M36.2,232.5H22.6c-2,0-3.6-1.5-3.6-3.3v-16c0-1.8,1.6-3.3,3.6-3.3h13.5c2,0,3.6,1.5,3.6,3.3v16
	C39.7,231,38.1,232.5,36.2,232.5z"/>
<path class="st0" d="M59.8,232.5H46.3c-2,0-3.6-1.5-3.6-3.3v-16c0-1.8,1.6-3.3,3.6-3.3h13.5c2,0,3.6,1.5,3.6,3.3v16
	C63.4,231,61.8,232.5,59.8,232.5z"/>
<path class="st0" d="M83.5,232.5H69.9c-2,0-3.6-1.5-3.6-3.3v-16c0-1.8,1.6-3.3,3.6-3.3h13.5c2,0,3.6,1.5,3.6,3.3v16
	C87,231,85.5,232.5,83.5,232.5z"/>
<path class="st0" d="M107.1,232.5H93.6c-2,0-3.6-1.5-3.6-3.3v-16c0-1.8,1.6-3.3,3.6-3.3h13.5c2,0,3.6,1.5,3.6,3.3v16
	C110.7,231,109.1,232.5,107.1,232.5z"/>
<path class="st0" d="M130.8,232.5h-13.5c-2,0-3.6-1.5-3.6-3.3v-16c0-1.8,1.6-3.3,3.6-3.3h13.5c2,0,3.6,1.5,3.6,3.3v16
	C134.4,231,132.8,232.5,130.8,232.5z"/>
<path class="st0" d="M154.5,232.5h-13.5c-2,0-3.6-1.5-3.6-3.3v-16c0-1.8,1.6-3.3,3.6-3.3h13.5c2,0,3.6,1.5,3.6,3.3v16
	C158,231,156.4,232.5,154.5,232.5z"/>
<path class="st0" d="M36.2,206.2H22.6c-2,0-3.6-1.5-3.6-3.3v-16c0-1.8,1.6-3.3,3.6-3.3h13.5c2,0,3.6,1.5,3.6,3.3v16
	C39.7,204.8,38.1,206.2,36.2,206.2z"/>
<path class="st0" d="M59.8,206.2H46.3c-2,0-3.6-1.5-3.6-3.3v-16c0-1.8,1.6-3.3,3.6-3.3h13.5c2,0,3.6,1.5,3.6,3.3v16
	C63.4,204.8,61.8,206.2,59.8,206.2z"/>
<path class="st0" d="M83.5,206.2H69.9c-2,0-3.6-1.5-3.6-3.3v-16c0-1.8,1.6-3.3,3.6-3.3h13.5c2,0,3.6,1.5,3.6,3.3v16
	C87,204.8,85.5,206.2,83.5,206.2z"/>
<path class="st0" d="M107.1,206.2H93.6c-2,0-3.6-1.5-3.6-3.3v-16c0-1.8,1.6-3.3,3.6-3.3h13.5c2,0,3.6,1.5,3.6,3.3v16
	C110.7,204.8,109.1,206.2,107.1,206.2z"/>
<path class="st0" d="M130.8,206.2h-13.5c-2,0-3.6-1.5-3.6-3.3v-16c0-1.8,1.6-3.3,3.6-3.3h13.5c2,0,3.6,1.5,3.6,3.3v16
	C134.4,204.8,132.8,206.2,130.8,206.2z"/>
<path class="st0" d="M154.5,206.2h-13.5c-2,0-3.6-1.5-3.6-3.3v-16c0-1.8,1.6-3.3,3.6-3.3h13.5c2,0,3.6,1.5,3.6,3.3v16
	C158,204.8,156.4,206.2,154.5,206.2z"/>
<path class="st0" d="M36.2,180H22.6c-2,0-3.6-1.5-3.6-3.3v-16c0-1.8,1.6-3.3,3.6-3.3h13.5c2,0,3.6,1.5,3.6,3.3v16
	C39.7,178.5,38.1,180,36.2,180z"/>
<path class="st0" d="M59.8,180H46.3c-2,0-3.6-1.5-3.6-3.3v-16c0-1.8,1.6-3.3,3.6-3.3h13.5c2,0,3.6,1.5,3.6,3.3v16
	C63.4,178.5,61.8,180,59.8,180z"/>
<path class="st0" d="M83.5,180H69.9c-2,0-3.6-1.5-3.6-3.3v-16c0-1.8,1.6-3.3,3.6-3.3h13.5c2,0,3.6,1.5,3.6,3.3v16
	C87,178.5,85.5,180,83.5,180z"/>
<path class="st0" d="M107.1,180H93.6c-2,0-3.6-1.5-3.6-3.3v-16c0-1.8,1.6-3.3,3.6-3.3h13.5c2,0,3.6,1.5,3.6,3.3v16
	C110.7,178.5,109.1,180,107.1,180z"/>
<path class="st0" d="M130.8,180h-13.5c-2,0-3.6-1.5-3.6-3.3v-16c0-1.8,1.6-3.3,3.6-3.3h13.5c2,0,3.6,1.5,3.6,3.3v16
	C134.4,178.5,132.8,180,130.8,180z"/>
<path class="st0" d="M154.5,180h-13.5c-2,0-3.6-1.5-3.6-3.3v-16c0-1.8,1.6-3.3,3.6-3.3h13.5c2,0,3.6,1.5,3.6,3.3v16
	C158,178.5,156.4,180,154.5,180z"/>
<path class="st0" d="M59.8,153.8H46.3c-2,0-3.6-1.5-3.6-3.3v-16c0-1.8,1.6-3.3,3.6-3.3h13.5c2,0,3.6,1.5,3.6,3.3v16
	C63.4,152.3,61.8,153.8,59.8,153.8z"/>
<path class="st0" d="M83.5,153.8H69.9c-2,0-3.6-1.5-3.6-3.3v-16c0-1.8,1.6-3.3,3.6-3.3h13.5c2,0,3.6,1.5,3.6,3.3v16
	C87,152.3,85.5,153.8,83.5,153.8z"/>
<path class="st0" d="M107.1,153.8H93.6c-2,0-3.6-1.5-3.6-3.3v-16c0-1.8,1.6-3.3,3.6-3.3h13.5c2,0,3.6,1.5,3.6,3.3v16
	C110.7,152.3,109.1,153.8,107.1,153.8z"/>
<path class="st0" d="M130.8,153.8h-13.5c-2,0-3.6-1.5-3.6-3.3v-16c0-1.8,1.6-3.3,3.6-3.3h13.5c2,0,3.6,1.5,3.6,3.3v16
	C134.4,152.3,132.8,153.8,130.8,153.8z"/>
<path class="st0" d="M154.5,153.8h-13.5c-2,0-3.6-1.5-3.6-3.3v-16c0-1.8,1.6-3.3,3.6-3.3h13.5c2,0,3.6,1.5,3.6,3.3v16
	C158,152.3,156.4,153.8,154.5,153.8z"/>
<path class="st0" d="M59.8,127.5H46.3c-2,0-3.6-1.5-3.6-3.3v-16c0-1.8,1.6-3.3,3.6-3.3h13.5c2,0,3.6,1.5,3.6,3.3v16
	C63.4,126.1,61.8,127.5,59.8,127.5z"/>
<path class="st0" d="M83.5,127.5H69.9c-2,0-3.6-1.5-3.6-3.3v-16c0-1.8,1.6-3.3,3.6-3.3h13.5c2,0,3.6,1.5,3.6,3.3v16
	C87,126.1,85.5,127.5,83.5,127.5z"/>
<path class="st0" d="M107.1,127.5H93.6c-2,0-3.6-1.5-3.6-3.3v-16c0-1.8,1.6-3.3,3.6-3.3h13.5c2,0,3.6,1.5,3.6,3.3v16
	C110.7,126.1,109.1,127.5,107.1,127.5z"/>
<path class="st0" d="M130.8,127.5h-13.5c-2,0-3.6-1.5-3.6-3.3v-16c0-1.8,1.6-3.3,3.6-3.3h13.5c2,0,3.6,1.5,3.6,3.3v16
	C134.4,126.1,132.8,127.5,130.8,127.5z"/>
<path class="st0" d="M154.5,127.5h-13.5c-2,0-3.6-1.5-3.6-3.3v-16c0-1.8,1.6-3.3,3.6-3.3h13.5c2,0,3.6,1.5,3.6,3.3v16
	C158,126.1,156.4,127.5,154.5,127.5z"/>
<path class="st0" d="M83.5,101.3H69.9c-2,0-3.6-1.5-3.6-3.3V82c0-1.8,1.6-3.3,3.6-3.3h13.5c2,0,3.6,1.5,3.6,3.3v16
	C87,99.8,85.5,101.3,83.5,101.3z"/>
<path class="st0" d="M107.1,101.3H93.6c-2,0-3.6-1.5-3.6-3.3V82c0-1.8,1.6-3.3,3.6-3.3h13.5c2,0,3.6,1.5,3.6,3.3v16
	C110.7,99.8,109.1,101.3,107.1,101.3z"/>
<path class="st0" d="M130.8,101.3h-13.5c-2,0-3.6-1.5-3.6-3.3V82c0-1.8,1.6-3.3,3.6-3.3h13.5c2,0,3.6,1.5,3.6,3.3v16
	C134.4,99.8,132.8,101.3,130.8,101.3z"/>
<path class="st0" d="M154.5,101.3h-13.5c-2,0-3.6-1.5-3.6-3.3V82c0-1.8,1.6-3.3,3.6-3.3h13.5c2,0,3.6,1.5,3.6,3.3v16
	C158,99.8,156.4,101.3,154.5,101.3z"/>
<path class="st0" d="M594.8,258.7h-13.5c-2,0-3.6-1.5-3.6-3.3v-16c0-1.8,1.6-3.3,3.6-3.3h13.5c2,0,3.6,1.5,3.6,3.3v16
	C598.3,257.2,596.7,258.7,594.8,258.7z"/>
<path class="st0" d="M618.4,258.7h-13.5c-2,0-3.6-1.5-3.6-3.3v-16c0-1.8,1.6-3.3,3.6-3.3h13.5c2,0,3.6,1.5,3.6,3.3v16
	C622,257.2,620.4,258.7,618.4,258.7z"/>
<path class="st0" d="M642.1,258.7h-13.5c-2,0-3.6-1.5-3.6-3.3v-16c0-1.8,1.6-3.3,3.6-3.3h13.5c2,0,3.6,1.5,3.6,3.3v16
	C645.6,257.2,644.1,258.7,642.1,258.7z"/>
<path class="st0" d="M665.7,258.7h-13.5c-2,0-3.6-1.5-3.6-3.3v-16c0-1.8,1.6-3.3,3.6-3.3h13.5c2,0,3.6,1.5,3.6,3.3v16
	C669.3,257.2,667.7,258.7,665.7,258.7z"/>
<path class="st0" d="M689.4,258.7h-13.5c-2,0-3.6-1.5-3.6-3.3v-16c0-1.8,1.6-3.3,3.6-3.3h13.5c2,0,3.6,1.5,3.6,3.3v16
	C693,257.2,691.4,258.7,689.4,258.7z"/>
<path class="st0" d="M713.1,258.7h-13.5c-2,0-3.6-1.5-3.6-3.3v-16c0-1.8,1.6-3.3,3.6-3.3h13.5c2,0,3.6,1.5,3.6,3.3v16
	C716.6,257.2,715,258.7,713.1,258.7z"/>
<path class="st0" d="M594.8,284.9h-13.5c-2,0-3.6-1.5-3.6-3.3v-16c0-1.8,1.6-3.3,3.6-3.3h13.5c2,0,3.6,1.5,3.6,3.3v16
	C598.3,283.5,596.7,284.9,594.8,284.9z"/>
<path class="st0" d="M618.4,284.9h-13.5c-2,0-3.6-1.5-3.6-3.3v-16c0-1.8,1.6-3.3,3.6-3.3h13.5c2,0,3.6,1.5,3.6,3.3v16
	C622,283.5,620.4,284.9,618.4,284.9z"/>
<path class="st0" d="M642.1,284.9h-13.5c-2,0-3.6-1.5-3.6-3.3v-16c0-1.8,1.6-3.3,3.6-3.3h13.5c2,0,3.6,1.5,3.6,3.3v16
	C645.6,283.5,644.1,284.9,642.1,284.9z"/>
<path class="st0" d="M665.7,284.9h-13.5c-2,0-3.6-1.5-3.6-3.3v-16c0-1.8,1.6-3.3,3.6-3.3h13.5c2,0,3.6,1.5,3.6,3.3v16
	C669.3,283.5,667.7,284.9,665.7,284.9z"/>
<path class="st0" d="M689.4,284.9h-13.5c-2,0-3.6-1.5-3.6-3.3v-16c0-1.8,1.6-3.3,3.6-3.3h13.5c2,0,3.6,1.5,3.6,3.3v16
	C693,283.5,691.4,284.9,689.4,284.9z"/>
<path class="st0" d="M713.1,284.9h-13.5c-2,0-3.6-1.5-3.6-3.3v-16c0-1.8,1.6-3.3,3.6-3.3h13.5c2,0,3.6,1.5,3.6,3.3v16
	C716.6,283.5,715,284.9,713.1,284.9z"/>
<path class="st0" d="M594.8,232.5h-13.5c-2,0-3.6-1.5-3.6-3.3v-16c0-1.8,1.6-3.3,3.6-3.3h13.5c2,0,3.6,1.5,3.6,3.3v16
	C598.3,231,596.7,232.5,594.8,232.5z"/>
<path class="st0" d="M618.4,232.5h-13.5c-2,0-3.6-1.5-3.6-3.3v-16c0-1.8,1.6-3.3,3.6-3.3h13.5c2,0,3.6,1.5,3.6,3.3v16
	C622,231,620.4,232.5,618.4,232.5z"/>
<path class="st0" d="M642.1,232.5h-13.5c-2,0-3.6-1.5-3.6-3.3v-16c0-1.8,1.6-3.3,3.6-3.3h13.5c2,0,3.6,1.5,3.6,3.3v16
	C645.6,231,644.1,232.5,642.1,232.5z"/>
<path class="st0" d="M665.7,232.5h-13.5c-2,0-3.6-1.5-3.6-3.3v-16c0-1.8,1.6-3.3,3.6-3.3h13.5c2,0,3.6,1.5,3.6,3.3v16
	C669.3,231,667.7,232.5,665.7,232.5z"/>
<path class="st0" d="M689.4,232.5h-13.5c-2,0-3.6-1.5-3.6-3.3v-16c0-1.8,1.6-3.3,3.6-3.3h13.5c2,0,3.6,1.5,3.6,3.3v16
	C693,231,691.4,232.5,689.4,232.5z"/>
<path class="st0" d="M713.1,232.5h-13.5c-2,0-3.6-1.5-3.6-3.3v-16c0-1.8,1.6-3.3,3.6-3.3h13.5c2,0,3.6,1.5,3.6,3.3v16
	C716.6,231,715,232.5,713.1,232.5z"/>
<path class="st0" d="M594.8,206.2h-13.5c-2,0-3.6-1.5-3.6-3.3v-16c0-1.8,1.6-3.3,3.6-3.3h13.5c2,0,3.6,1.5,3.6,3.3v16
	C598.3,204.8,596.7,206.2,594.8,206.2z"/>
<path class="st0" d="M618.4,206.2h-13.5c-2,0-3.6-1.5-3.6-3.3v-16c0-1.8,1.6-3.3,3.6-3.3h13.5c2,0,3.6,1.5,3.6,3.3v16
	C622,204.8,620.4,206.2,618.4,206.2z"/>
<path class="st0" d="M642.1,206.2h-13.5c-2,0-3.6-1.5-3.6-3.3v-16c0-1.8,1.6-3.3,3.6-3.3h13.5c2,0,3.6,1.5,3.6,3.3v16
	C645.6,204.8,644.1,206.2,642.1,206.2z"/>
<path class="st0" d="M665.7,206.2h-13.5c-2,0-3.6-1.5-3.6-3.3v-16c0-1.8,1.6-3.3,3.6-3.3h13.5c2,0,3.6,1.5,3.6,3.3v16
	C669.3,204.8,667.7,206.2,665.7,206.2z"/>
<path class="st0" d="M689.4,206.2h-13.5c-2,0-3.6-1.5-3.6-3.3v-16c0-1.8,1.6-3.3,3.6-3.3h13.5c2,0,3.6,1.5,3.6,3.3v16
	C693,204.8,691.4,206.2,689.4,206.2z"/>
<path class="st0" d="M713.1,206.2h-13.5c-2,0-3.6-1.5-3.6-3.3v-16c0-1.8,1.6-3.3,3.6-3.3h13.5c2,0,3.6,1.5,3.6,3.3v16
	C716.6,204.8,715,206.2,713.1,206.2z"/>
<path class="st0" d="M594.8,180h-13.5c-2,0-3.6-1.5-3.6-3.3v-16c0-1.8,1.6-3.3,3.6-3.3h13.5c2,0,3.6,1.5,3.6,3.3v16
	C598.3,178.5,596.7,180,594.8,180z"/>
<path class="st0" d="M618.4,180h-13.5c-2,0-3.6-1.5-3.6-3.3v-16c0-1.8,1.6-3.3,3.6-3.3h13.5c2,0,3.6,1.5,3.6,3.3v16
	C622,178.5,620.4,180,618.4,180z"/>
<path class="st0" d="M642.1,180h-13.5c-2,0-3.6-1.5-3.6-3.3v-16c0-1.8,1.6-3.3,3.6-3.3h13.5c2,0,3.6,1.5,3.6,3.3v16
	C645.6,178.5,644.1,180,642.1,180z"/>
<path class="st0" d="M665.7,180h-13.5c-2,0-3.6-1.5-3.6-3.3v-16c0-1.8,1.6-3.3,3.6-3.3h13.5c2,0,3.6,1.5,3.6,3.3v16
	C669.3,178.5,667.7,180,665.7,180z"/>
<path class="st0" d="M689.4,180h-13.5c-2,0-3.6-1.5-3.6-3.3v-16c0-1.8,1.6-3.3,3.6-3.3h13.5c2,0,3.6,1.5,3.6,3.3v16
	C693,178.5,691.4,180,689.4,180z"/>
<path class="st0" d="M713.1,180h-13.5c-2,0-3.6-1.5-3.6-3.3v-16c0-1.8,1.6-3.3,3.6-3.3h13.5c2,0,3.6,1.5,3.6,3.3v16
	C716.6,178.5,715,180,713.1,180z"/>
<path class="st0" d="M594.8,153.8h-13.5c-2,0-3.6-1.5-3.6-3.3v-16c0-1.8,1.6-3.3,3.6-3.3h13.5c2,0,3.6,1.5,3.6,3.3v16
	C598.3,152.3,596.7,153.8,594.8,153.8z"/>
<path class="st0" d="M618.4,153.8h-13.5c-2,0-3.6-1.5-3.6-3.3v-16c0-1.8,1.6-3.3,3.6-3.3h13.5c2,0,3.6,1.5,3.6,3.3v16
	C622,152.3,620.4,153.8,618.4,153.8z"/>
<path class="st0" d="M642.1,153.8h-13.5c-2,0-3.6-1.5-3.6-3.3v-16c0-1.8,1.6-3.3,3.6-3.3h13.5c2,0,3.6,1.5,3.6,3.3v16
	C645.6,152.3,644.1,153.8,642.1,153.8z"/>
<path class="st0" d="M665.7,153.8h-13.5c-2,0-3.6-1.5-3.6-3.3v-16c0-1.8,1.6-3.3,3.6-3.3h13.5c2,0,3.6,1.5,3.6,3.3v16
	C669.3,152.3,667.7,153.8,665.7,153.8z"/>
<path class="st0" d="M689.4,153.8h-13.5c-2,0-3.6-1.5-3.6-3.3v-16c0-1.8,1.6-3.3,3.6-3.3h13.5c2,0,3.6,1.5,3.6,3.3v16
	C693,152.3,691.4,153.8,689.4,153.8z"/>
<path class="st0" d="M594.8,127.5h-13.5c-2,0-3.6-1.5-3.6-3.3v-16c0-1.8,1.6-3.3,3.6-3.3h13.5c2,0,3.6,1.5,3.6,3.3v16
	C598.3,126.1,596.7,127.5,594.8,127.5z"/>
<path class="st0" d="M618.4,127.5h-13.5c-2,0-3.6-1.5-3.6-3.3v-16c0-1.8,1.6-3.3,3.6-3.3h13.5c2,0,3.6,1.5,3.6,3.3v16
	C622,126.1,620.4,127.5,618.4,127.5z"/>
<path class="st0" d="M642.1,127.5h-13.5c-2,0-3.6-1.5-3.6-3.3v-16c0-1.8,1.6-3.3,3.6-3.3h13.5c2,0,3.6,1.5,3.6,3.3v16
	C645.6,126.1,644.1,127.5,642.1,127.5z"/>
<path class="st0" d="M665.7,127.5h-13.5c-2,0-3.6-1.5-3.6-3.3v-16c0-1.8,1.6-3.3,3.6-3.3h13.5c2,0,3.6,1.5,3.6,3.3v16
	C669.3,126.1,667.7,127.5,665.7,127.5z"/>
<path class="st0" d="M689.4,127.5h-13.5c-2,0-3.6-1.5-3.6-3.3v-16c0-1.8,1.6-3.3,3.6-3.3h13.5c2,0,3.6,1.5,3.6,3.3v16
	C693,126.1,691.4,127.5,689.4,127.5z"/>
<path class="st0" d="M594.8,101.3h-13.5c-2,0-3.6-1.5-3.6-3.3V82c0-1.8,1.6-3.3,3.6-3.3h13.5c2,0,3.6,1.5,3.6,3.3v16
	C598.3,99.8,596.7,101.3,594.8,101.3z"/>
<path class="st0" d="M618.4,101.3h-13.5c-2,0-3.6-1.5-3.6-3.3V82c0-1.8,1.6-3.3,3.6-3.3h13.5c2,0,3.6,1.5,3.6,3.3v16
	C622,99.8,620.4,101.3,618.4,101.3z"/>
<path class="st0" d="M642.1,101.3h-13.5c-2,0-3.6-1.5-3.6-3.3V82c0-1.8,1.6-3.3,3.6-3.3h13.5c2,0,3.6,1.5,3.6,3.3v16
	C645.6,99.8,644,101.3,642.1,101.3z"/>
<path class="st0" d="M665.7,101.3h-13.5c-2,0-3.6-1.5-3.6-3.3V82c0-1.8,1.6-3.3,3.6-3.3h13.5c2,0,3.6,1.5,3.6,3.3v16
	C669.3,99.8,667.7,101.3,665.7,101.3z"/>
<path d="M358.8,8.8l-1.3,0.7c0.1,0.4,0.3,0.8,0.5,1.3s0.3,0.9,0.3,1.2c0,0.3-0.1,0.5-0.2,0.7c-0.2,0.2-0.4,0.3-0.7,0.3h0
	c-0.6,0-0.9-0.4-0.9-1.1c0-0.3,0.1-0.8,0.2-1.4l-1.3-0.1c-0.1,0.8-0.3,1.3-0.5,1.7c-0.3,0.6-0.7,0.8-1.2,0.8h0
	c-0.2,0-0.4-0.1-0.5-0.2c-0.1-0.1-0.2-0.3-0.2-0.6c0-0.3,0.1-0.7,0.2-1.2c0-0.2,0.1-0.3,0.1-0.3l-1.3-0.1c-0.1,0.3-0.2,0.6-0.3,0.9
	c-0.1,0.3-0.3,0.6-0.5,0.8c-0.1,0.2-0.4,0.4-0.7,0.5c-0.3,0.1-0.6,0.2-0.9,0.2h-0.1l0,0c-0.3,0-0.7,0-1.1,0c0.4-0.6,0.6-1.2,0.6-1.8
	c0-0.5-0.1-0.9-0.4-1.3c-0.2-0.4-0.6-0.7-1-0.9c-0.4-0.2-0.9-0.3-1.4-0.3c-1,0-2,0.5-3,1.4c0-1,0-2-0.1-3s-0.1-1.8-0.2-2.4L341.5,5
	c0.1,0.5,0.2,1.3,0.3,2.5c0.1,1.2,0.1,2.3,0.1,3.2c0,0.5,0,0.9,0,1.1c-0.3,0.4-0.5,0.8-0.7,1.2c-0.6-0.1-1.1-0.3-1.6-0.5l-0.5,1.7
	c0.6,0.3,1.3,0.5,2.1,0.7c0.8,0.2,1.6,0.2,2.4,0.2c1.1,0,2-0.2,2.8-0.5c0.7,0.2,1.7,0.3,3.2,0.3l0,0h0c0,0,0,0,0,0c0,0,0.1,0,0.1,0
	l0,0c0.4,0,0.8-0.1,1.1-0.3c0.4-0.2,0.7-0.5,1-0.9c0.1,0.4,0.3,0.7,0.6,0.9c0.3,0.2,0.6,0.3,1.1,0.3h0.1c0.4,0,0.7-0.1,1-0.3
	c0.3-0.2,0.6-0.5,0.8-0.9c0.1,0.4,0.4,0.7,0.7,0.9c0.3,0.2,0.7,0.3,1.1,0.3h0.1c0.4,0,0.8-0.1,1.2-0.4c0.4-0.2,0.6-0.6,0.8-1
	c0.2-0.4,0.3-0.9,0.3-1.4s-0.1-1.1-0.3-1.7C359.2,9.7,359,9.2,358.8,8.8z M347.2,12.2c-0.4,0.3-0.9,0.6-1.6,0.8s-1.5,0.3-2.3,0.3
	l-0.7,0c0.6-0.9,1.3-1.6,1.9-2.1s1.3-0.7,2-0.7c0.4,0,0.7,0.1,0.9,0.3c0.2,0.2,0.3,0.4,0.3,0.6C347.7,11.6,347.5,11.9,347.2,12.2z
	 M364.8,9.6c-0.4-0.5-1-0.7-1.5-0.7c-0.5,0-0.9,0.2-1.3,0.5c-0.4,0.3-0.7,0.8-0.9,1.3s-0.3,1.1-0.3,1.6c0,0.4,0.1,0.8,0.2,1.1
	c0.2,0.5,0.6,0.8,1.1,1c0.5,0.2,1.1,0.3,1.8,0.3c0.3,0,0.6,0,1-0.1c-0.2,0.6-0.6,1.1-1.3,1.5c-0.7,0.4-1.7,0.7-3.1,1l0.5,1.6
	c1.6-0.3,2.9-0.9,3.8-1.8c0.9-0.9,1.4-1.9,1.4-3.2c0-0.8-0.1-1.6-0.4-2.4C365.6,10.8,365.3,10.1,364.8,9.6z M364.2,13
	c-0.5,0-0.9-0.1-1.3-0.2s-0.6-0.3-0.8-0.4c-0.1-0.1-0.1-0.3-0.1-0.4c0-0.2,0.1-0.4,0.2-0.7c0.1-0.2,0.2-0.4,0.4-0.6
	c0.2-0.2,0.4-0.2,0.6-0.2c0.4,0,0.8,0.2,1,0.7s0.5,1.1,0.6,1.7C364.7,13,364.5,13,364.2,13z M379,7.5l-1.2-1.2l1.2-1.2l0.8,0.8
	l0.4,0.4L379,7.5z M382.5,16.4l0.7,0.7l-1.1,1.1l-1.1-1.1l0.7-0.7l0.4-0.4L382.5,16.4z M386.3,10.3c-0.2-0.6-0.4-1.1-0.6-1.6
	l-1.3,0.7c0.1,0.2,0.3,0.7,0.5,1.2s0.3,1,0.3,1.2c0,0.4-0.2,0.6-0.6,0.8c-0.4,0.2-1.1,0.3-2,0.3h-0.5H382h-1.2
	c0.3-0.5,0.5-1.1,0.5-1.7c0-0.5-0.1-0.9-0.3-1.4c-0.2-0.5-0.5-0.8-0.8-1.1c-0.4-0.3-0.8-0.4-1.2-0.4c-0.4,0-0.8,0.1-1.2,0.4
	c-0.4,0.3-0.7,0.6-0.9,1s-0.4,0.9-0.5,1.4c0,0.2,0,0.3,0,0.4c0,0.6,0.2,1.1,0.6,1.5c-0.3,0-0.8,0.1-1.2,0.1h0
	c-1.2,0-2.2-0.1-2.9-0.4c-0.7-0.2-1.1-0.6-1.1-1c0-0.4,0.1-1,0.4-1.9l-1.2-0.6c-0.2,0.4-0.3,0.8-0.4,1.2s-0.2,0.9-0.2,1.3
	c0,0.1,0,0.3,0,0.3c0.1,0.9,0.6,1.6,1.5,2.1c0.9,0.5,2.2,0.7,3.9,0.7h0c1.3,0,2.4-0.2,3.3-0.5c0.7,0.2,1.5,0.4,2.4,0.4h0.7h0.1h0.8
	c1.2,0,2.2-0.2,2.8-0.7c0.6-0.5,0.9-1.2,1-2.1C386.6,11.5,386.5,11,386.3,10.3z M379.9,11.5c-0.2,0.5-0.6,0.9-1.1,1.1
	c-0.4-0.2-0.6-0.4-0.8-0.6c-0.2-0.2-0.3-0.5-0.3-0.7c0-0.3,0.2-0.6,0.4-0.9c0.2-0.3,0.5-0.4,0.8-0.4c0.3,0,0.6,0.1,0.8,0.4
	c0.2,0.3,0.3,0.6,0.3,0.9C379.9,11.4,379.9,11.5,379.9,11.5z M385,16.4l0.7,0.7l-1.1,1.1l-1.1-1.1l0.7-0.7l0.4-0.4L385,16.4z
	 M391.7,14.4c-0.5,0.3-1.2,0.4-1.8,0.4c-0.8,0-1.4-0.1-2-0.3c-0.5-0.2-1-0.5-1.3-0.7l0.7-1.3c0.3,0.2,0.7,0.3,1,0.4
	c0.4,0.1,0.8,0.2,1.4,0.2c0.5,0,0.9-0.1,1.2-0.2s0.5-0.3,0.6-0.4c0-0.1,0-0.1,0-0.2c0-0.4-0.2-0.8-0.7-1.5c-0.5-0.6-1.2-1.3-2.2-2
	l0.9-1.6c1.1,0.8,1.9,1.6,2.5,2.5c0.6,0.9,0.9,1.7,0.9,2.5c0,0.3-0.1,0.7-0.2,1C392.6,13.8,392.2,14.2,391.7,14.4z M396.9,14.5
	c0,0.9-0.4,1.7-1.1,2.5c-0.7,0.8-1.7,1.4-2.8,1.8l-0.7-1.5c0.6-0.2,1.2-0.5,1.7-0.9s0.9-0.7,1.2-1c0.3-0.3,0.4-0.7,0.4-0.9
	c0-0.2-0.1-0.5-0.2-1s-0.3-1.1-0.4-1.8c-0.1-0.3-0.1-0.5-0.2-0.6l1.4-0.5c0.2,0.7,0.4,1.3,0.5,2.1C396.8,13.4,396.9,14,396.9,14.5z"
	/>
<path d="M73.6,68c0.4,0.4,0.7,0.7,0.8,0.8l-0.7,0.7l-0.3,0.4l-1.1-1.1L73,68l0.4-0.3L73.6,68z M71.4,68.4l-0.7-0.7l-1.1,1.1l1.1,1.1
	l1.1-1.1L71.4,68.4z M71.1,70.4l0.9,0.9l0.6-0.6l0.3-0.3l-0.9-1L71.1,70.4z M83.3,68.4l-0.7-0.7l-1,1.1l1,1.1l1.1-1.1L83.3,68.4z
	 M85.2,67.7L84.9,68l-0.7,0.7l1.1,1.1l0.4-0.4l0.7-0.7c-0.1-0.1-0.3-0.4-0.8-0.8L85.2,67.7z M83,70.4l0.9,0.9l0.6-0.6l0.3-0.3
	l-0.9-1L83,70.4z M87.1,62c-0.4-0.1-0.8-0.4-1.4-0.7c-0.7-0.3-1.2-0.6-1.5-0.7c-0.4-0.1-0.8-0.2-1.2-0.2c-0.6,0-1.1,0.2-1.5,0.5
	c-0.5,0.3-0.8,0.8-1.2,1.5l1,0.7c0.1-0.3,0.4-0.5,0.7-0.7c0.3-0.2,0.6-0.3,1-0.3c0.6,0,1.3,0.2,2.2,0.7c0.5,0.3,0.9,0.4,1.2,0.5
	c-1.1,0.6-2.1,1-3.1,1.2c-1,0.3-2,0.4-3.1,0.4h-1c-0.7,0-1-0.3-1-1c0-0.3,0.1-0.7,0.3-1.3l-1.3-0.2c-0.2,0.7-0.5,1.2-0.9,1.5
	c-0.4,0.4-0.9,0.6-1.6,0.8s-1.6,0.3-2.8,0.3c-1.2,0-2.2-0.1-2.9-0.4c-0.7-0.2-1.1-0.6-1.1-1c0-0.4,0.1-1,0.4-1.9l-1.2-0.6
	c-0.2,0.4-0.3,0.8-0.4,1.2s-0.2,0.9-0.2,1.3c0,0.1,0,0.3,0,0.3c0.1,0.9,0.6,1.6,1.5,2.1c0.9,0.5,2.2,0.7,3.8,0.7
	c1.3,0,2.4-0.1,3.2-0.4c0.9-0.3,1.6-0.8,2.1-1.4c0.1,0.5,0.3,0.9,0.7,1.2c0.4,0.3,0.8,0.4,1.2,0.5v0h0.8c0.9,0,1.7-0.1,2.4-0.2
	c0.7-0.1,1.4-0.4,2.1-0.6c0.7-0.3,1.5-0.7,2.3-1.1c0.2-0.1,0.3-0.2,0.4-0.2c0.6-0.3,1-0.5,1.3-0.6l-0.1-1.6
	C87.8,62.3,87.4,62.1,87.1,62z M102.1,58.3l-0.4-0.4l-0.8-0.8l-1.2,1.2l1.2,1.2L102.1,58.3z M106.6,68l-0.4,0.4l-0.7,0.7l1.1,1.1
	l1.1-1.1l-0.7-0.7L106.6,68z M104.1,68l-0.4,0.4l-0.7,0.7l1.1,1.1l1.1-1.1l-0.7-0.7L104.1,68z M108.6,63.9c0,0.9-0.3,1.6-1,2.1
	c-0.6,0.5-1.6,0.7-2.8,0.7h-0.8h-0.1h-0.7c-0.9,0-1.7-0.1-2.4-0.4c-0.9,0.3-2,0.5-3.3,0.5h0c-1.7,0-2.9-0.2-3.9-0.7
	c-0.9-0.5-1.5-1.2-1.5-2.1c0-0.1,0-0.2,0-0.3c0-0.4,0.1-0.8,0.2-1.3s0.2-0.9,0.4-1.2l1.2,0.6c-0.3,0.8-0.4,1.5-0.4,1.9
	c0.1,0.4,0.5,0.7,1.1,1c0.7,0.2,1.7,0.4,2.9,0.4h0c0.5,0,0.9,0,1.2-0.1c-0.4-0.5-0.6-1-0.6-1.5c0-0.1,0-0.2,0-0.4
	c0.1-0.5,0.2-1,0.5-1.4s0.6-0.8,0.9-1s0.8-0.4,1.2-0.4c0.5,0,0.9,0.1,1.2,0.4c0.4,0.3,0.6,0.7,0.8,1.1s0.3,0.9,0.3,1.4
	c0,0.7-0.2,1.2-0.5,1.7h1.2h0.1h0.5c1,0,1.6-0.1,2-0.3c0.4-0.2,0.6-0.4,0.6-0.8c0-0.2-0.1-0.6-0.3-1.2s-0.3-1-0.5-1.2l1.3-0.7
	c0.2,0.4,0.4,0.9,0.6,1.6C108.5,62.9,108.6,63.5,108.6,63.9z M101.8,63.3c0-0.3-0.1-0.6-0.3-0.9c-0.2-0.3-0.5-0.4-0.8-0.4
	c-0.3,0-0.6,0.1-0.8,0.4c-0.2,0.3-0.4,0.6-0.4,0.9c0,0.3,0.1,0.5,0.3,0.7c0.2,0.2,0.5,0.4,0.8,0.6c0.6-0.3,0.9-0.6,1.1-1.1
	C101.8,63.4,101.8,63.4,101.8,63.3z M114.7,65.3c0.1-0.3,0.2-0.7,0.2-1c0-0.8-0.3-1.6-0.9-2.5c-0.6-0.9-1.5-1.7-2.5-2.5l-0.9,1.6
	c1,0.7,1.8,1.4,2.2,2c0.5,0.6,0.7,1.1,0.7,1.5c0,0.1,0,0.1,0,0.2c-0.1,0.1-0.3,0.3-0.6,0.4c-0.3,0.1-0.7,0.2-1.2,0.2
	c-0.5,0-1-0.1-1.4-0.2c-0.4-0.1-0.7-0.3-1-0.4l-0.7,1.3c0.3,0.3,0.7,0.5,1.3,0.7c0.5,0.2,1.2,0.3,2,0.3c0.7,0,1.3-0.1,1.8-0.4
	C114.1,66.1,114.5,65.8,114.7,65.3z M118.6,64.6c-0.1-0.7-0.3-1.4-0.5-2.1l-1.4,0.5c0,0.1,0.1,0.3,0.2,0.6c0.2,0.7,0.3,1.3,0.4,1.8
	s0.2,0.8,0.2,1c0,0.3-0.1,0.6-0.4,0.9c-0.3,0.3-0.7,0.7-1.2,1s-1.1,0.6-1.7,0.9l0.7,1.5c1.2-0.5,2.1-1.1,2.8-1.8
	c0.7-0.8,1.1-1.6,1.1-2.5C118.8,65.9,118.7,65.3,118.6,64.6z"/>
<path d="M613,62.3l-0.7-0.7l1.1-1.1l1.1,1.1l-0.7,0.7l-0.4,0.4L613,62.3z M615.8,62.7l0.4-0.4l0.7-0.7l-1.1-1.1l-1.1,1.1l0.7,0.7
	L615.8,62.7z M630.7,61.2l-1.3,0.7c0.1,0.4,0.3,0.8,0.5,1.3s0.3,0.9,0.3,1.2c0,0.3-0.1,0.5-0.2,0.7c-0.2,0.2-0.4,0.3-0.7,0.3h0
	c-0.6,0-0.9-0.4-0.9-1.1c0-0.3,0.1-0.8,0.2-1.4l-1.3-0.1c-0.1,0.8-0.3,1.3-0.5,1.7c-0.3,0.6-0.7,0.8-1.2,0.8h0
	c-0.2,0-0.4-0.1-0.5-0.2c-0.1-0.1-0.2-0.3-0.2-0.6c0-0.3,0.1-0.7,0.2-1.2c0-0.2,0.1-0.3,0.1-0.3l-1.3-0.1c-0.1,0.3-0.2,0.6-0.3,0.9
	c-0.1,0.3-0.3,0.6-0.5,0.8c-0.2,0.2-0.4,0.4-0.7,0.5c-0.3,0.1-0.6,0.2-0.9,0.2c-0.7,0-1-0.3-1-1c0-0.3,0.1-0.7,0.3-1.3l-1.3-0.2
	c-0.2,0.7-0.5,1.2-0.9,1.5c-0.4,0.4-0.9,0.6-1.6,0.8c-0.7,0.2-1.6,0.3-2.8,0.3c-1.2,0-2.2-0.1-2.9-0.4c-0.7-0.2-1.1-0.6-1.1-1
	c0-0.4,0.1-1,0.4-1.9l-1.2-0.6c-0.2,0.4-0.3,0.8-0.4,1.2c-0.1,0.4-0.2,0.9-0.2,1.3c0,0.1,0,0.3,0,0.3c0.1,0.9,0.6,1.6,1.5,2.1
	c0.9,0.5,2.2,0.7,3.8,0.7c1.3,0,2.4-0.1,3.2-0.4c0.9-0.3,1.6-0.8,2.1-1.4c0.1,0.5,0.3,0.9,0.7,1.2c0.4,0.3,0.8,0.4,1.3,0.5l0,0h0
	c0,0,0,0,0,0c0,0,0,0,0,0l0,0c0.4,0,0.9-0.1,1.2-0.3c0.4-0.2,0.7-0.5,1-0.9c0.1,0.4,0.3,0.7,0.6,0.9c0.3,0.2,0.6,0.3,1.1,0.3h0.1
	c0.4,0,0.7-0.1,1-0.3s0.6-0.5,0.8-0.9c0.1,0.4,0.4,0.7,0.7,0.9c0.3,0.2,0.7,0.3,1.1,0.3h0.1c0.4,0,0.8-0.1,1.2-0.4
	c0.3-0.2,0.6-0.6,0.8-1c0.2-0.4,0.3-0.9,0.3-1.4s-0.1-1.1-0.3-1.7C631.1,62.2,630.9,61.6,630.7,61.2z M634.4,67.3
	c0.1-0.8,0.2-1.9,0.2-3.5c0-1.3,0-2.6-0.1-4c-0.1-1.4-0.1-2.3-0.2-2.8l-1.5,0.3c0.1,0.5,0.2,1.5,0.2,2.9c0.1,1.4,0.1,2.7,0.1,4
	c0,1.3,0,2.3-0.1,2.8L634.4,67.3z M638,63l-1.4,0.5c0,0.1,0.1,0.3,0.2,0.6c0.2,0.7,0.3,1.3,0.4,1.8c0.1,0.5,0.2,0.8,0.2,1
	c0,0.3-0.1,0.6-0.4,0.9c-0.3,0.3-0.7,0.7-1.2,1s-1.1,0.6-1.7,0.9l0.7,1.5c1.2-0.5,2.1-1.1,2.8-1.8c0.7-0.8,1.1-1.6,1.1-2.5
	c0-0.5-0.1-1.2-0.2-1.9S638.2,63.7,638,63z M652.6,58.8l-0.4-0.4l-0.8-0.8l-1.2,1.2l1.2,1.2L652.6,58.8z M659.1,64.4
	c0,0.9-0.3,1.6-1,2.1c-0.6,0.5-1.6,0.7-2.8,0.7h-0.8h-0.1h-0.7c-0.9,0-1.7-0.1-2.4-0.4c-0.9,0.3-2,0.5-3.3,0.5h0
	c-1.7,0-2.9-0.2-3.9-0.7c-0.9-0.5-1.5-1.2-1.5-2.1c0-0.1,0-0.2,0-0.3c0-0.4,0.1-0.8,0.2-1.3s0.2-0.9,0.4-1.2l1.2,0.6
	c-0.3,0.8-0.4,1.5-0.4,1.9c0.1,0.4,0.5,0.7,1.1,1c0.7,0.2,1.7,0.4,2.9,0.4h0c0.5,0,0.9,0,1.2-0.1c-0.4-0.5-0.6-1-0.6-1.5
	c0-0.1,0-0.2,0-0.4c0.1-0.5,0.2-1,0.5-1.4c0.3-0.4,0.6-0.8,0.9-1s0.8-0.4,1.2-0.4c0.5,0,0.9,0.1,1.2,0.4c0.4,0.3,0.6,0.7,0.8,1.1
	c0.2,0.5,0.3,0.9,0.3,1.4c0,0.7-0.2,1.2-0.5,1.7h1.2h0.1h0.5c1,0,1.6-0.1,2-0.3c0.4-0.2,0.6-0.4,0.6-0.8c0-0.2-0.1-0.6-0.3-1.2
	s-0.3-1-0.5-1.2l1.3-0.7c0.2,0.4,0.4,0.9,0.6,1.6C659,63.4,659.1,64,659.1,64.4z M652.4,63.8c0-0.3-0.1-0.6-0.3-0.9
	c-0.2-0.3-0.5-0.4-0.8-0.4c-0.3,0-0.6,0.1-0.8,0.4c-0.2,0.3-0.4,0.6-0.4,0.9c0,0.3,0.1,0.5,0.3,0.7c0.2,0.2,0.5,0.4,0.8,0.6
	c0.6-0.3,0.9-0.6,1.1-1.1C652.4,63.9,652.4,63.9,652.4,63.8z M654.6,68.5l-0.4,0.4l-0.7,0.7l1.1,1.1l1.1-1.1l-0.7-0.7L654.6,68.5z
	 M657.1,68.5l-0.4,0.4l-0.7,0.7l1.1,1.1l1.1-1.1l-0.7-0.7L657.1,68.5z M665.2,65.8c0.1-0.3,0.2-0.7,0.2-1c0-0.8-0.3-1.6-0.9-2.5
	c-0.6-0.9-1.5-1.7-2.5-2.5l-0.9,1.6c1,0.7,1.8,1.4,2.2,2c0.5,0.6,0.7,1.1,0.7,1.5c0,0.1,0,0.1,0,0.2c-0.1,0.1-0.3,0.3-0.6,0.4
	c-0.3,0.1-0.7,0.2-1.2,0.2c-0.5,0-1-0.1-1.4-0.2c-0.4-0.1-0.7-0.3-1-0.4l-0.7,1.3c0.3,0.3,0.7,0.5,1.3,0.7s1.2,0.3,2,0.3
	c0.7,0,1.3-0.1,1.8-0.4S665,66.3,665.2,65.8z M669.1,65.1c-0.1-0.7-0.3-1.4-0.5-2.1l-1.4,0.5c0,0.1,0.1,0.3,0.2,0.6
	c0.2,0.7,0.3,1.3,0.4,1.8s0.2,0.8,0.2,1c0,0.3-0.1,0.6-0.4,0.9c-0.3,0.3-0.7,0.7-1.2,1s-1.1,0.6-1.7,0.9l0.7,1.5
	c1.2-0.5,2.1-1.1,2.8-1.8c0.7-0.8,1.1-1.6,1.1-2.5C669.3,66.4,669.2,65.8,669.1,65.1z"/>
</svg>
